<?xml version='1.0' encoding='utf-8'?>
<svg xmlns="http://www.w3.org/2000/svg" width="1920" height="1080" viewBox="0 0 1920 1080" data-theme="light">
  <style>
        @font-face {
            font-family: 'Inter';
            src: url('assets/fonts/Inter-Regular.ttf') format('truetype');
            font-weight: 400;
            font-style: normal;
            font-display: swap;
        }
        @font-face {
            font-family: 'Inter';
            src: url('assets/fonts/Inter-Bold.ttf') format('truetype');
            font-weight: 600;
            font-style: normal;
            font-display: swap;
        }
        @font-face {
            font-family: 'Inter';
            src: url('assets/fonts/Inter-Bold.ttf') format('truetype');
            font-weight: 800;
            font-style: normal;
            font-display: swap;
        }
        
:root {
    --background: #f8fafc;
    --panel: #ffffff;
    --primary-text: #0f172a;
    --muted-text: #64748b;
    --inverse-text: #ffffff;
    --border: #e2e8f0;
    --shadow-color: #000000;
    --icon-pad-bg: #1e293b;
    --art-glow: #0891b2;
    --art-glow-opacity: 0.10;
    --art-sheen: #ffffff;
    --art-sheen-opacity: 0.34;
    --art-shadow: #0f172a;
    --art-shadow-opacity: 0.14;
    --art-muted-line: #94a3b8;
    --art-panel-tint: #f1f5f9;
    --font-family: 'Inter', 'Segoe UI', 'Kalam', Roboto, Helvetica, Arial, sans-serif;
    --radius-xl: 16px;
    --font-family-headline: 'Inter', 'Segoe UI', 'Kalam', Roboto, Helvetica, Arial, sans-serif;
    --font-family-body: 'Inter', 'Segoe UI', 'Kalam', Roboto, Helvetica, Arial, sans-serif;
    --font-heading: 'Inter', 'Segoe UI', 'Kalam', Roboto, Helvetica, Arial, sans-serif;
    --font-body: 'Inter', 'Segoe UI', 'Kalam', Roboto, Helvetica, Arial, sans-serif;
    --font-size-h1: 56px;
    --font-size-h2: 40px;
    --font-size-h3: 28px;
    --font-size-body: 24px;
    --font-size-caption: 18px;
    --secondary-text: var(--muted-text);
    --panel-border: var(--border);
    --font-weight-normal: 400;
    --font-weight-medium: 500;
    --font-weight-semibold: 600;
    --font-weight-bold: 700;
    --spacing-gutter-pct: 0.07;
    --spacing-top-pct: 0.15;
    --spacing-bottom-pct: 0.07;
    --spacing-title-y-pct: 0.055;
    --accent-1: #3b82f6;
    --accent-2: #22c55e;
    --accent-3: #f59e0b;
    --accent-4: #ec4899;
    --accent-5: #8b5cf6;
    --accent-6: #06b6d4;
}
:root[data-theme="dark"] {
    --background: #0f172a;
    --panel: #1e293b;
    --primary-text: #f1f5f9;
    --muted-text: #94a3b8;
    --inverse-text: #0f172a;
    --border: #334155;
    --shadow-color: #000000;
    --icon-pad-bg: #1e293b;
    --art-glow: #7dd3fc;
    --art-glow-opacity: 0.18;
    --art-sheen: #ffffff;
    --art-sheen-opacity: 0.18;
    --art-shadow: #000000;
    --art-shadow-opacity: 0.28;
    --art-muted-line: #64748b;
    --art-panel-tint: #1e293b;
    --accent-1: #93c5fd;
    --accent-2: #86efac;
    --accent-3: #fcd34d;
    --accent-4: #f9a8d4;
    --accent-5: #c4b5fd;
    --accent-6: #a5f3fc;
}
:root[data-theme="light"] {
    --background: #f8fafc;
    --panel: #ffffff;
    --primary-text: #0f172a;
    --muted-text: #64748b;
    --inverse-text: #ffffff;
    --border: #e2e8f0;
    --shadow-color: #000000;
    --icon-pad-bg: #1e293b;
    --art-glow: #0891b2;
    --art-glow-opacity: 0.10;
    --art-sheen: #ffffff;
    --art-sheen-opacity: 0.34;
    --art-shadow: #0f172a;
    --art-shadow-opacity: 0.14;
    --art-muted-line: #94a3b8;
    --art-panel-tint: #f1f5f9;
    --accent-1: #3b82f6;
    --accent-2: #22c55e;
    --accent-3: #f59e0b;
    --accent-4: #ec4899;
    --accent-5: #8b5cf6;
    --accent-6: #06b6d4;
}</style>
  <rect x="0" y="0" width="1.92E+3" height="1.08E+3" fill="#252a34" stroke="none" id="programmatic_background"/>
  <line id="HEADER_DECOR" x1="960.0" x2="1080.0" y1="95.0" y2="95.0" stroke="var(--accent-1)" stroke-width="6" stroke-linecap="round"/>
  <defs>
    <pattern id="svgd7f4218c-napkin-hatch" patternUnits="userSpaceOnUse" width="12" height="12">
      <path d="M -3 12 L 12 -3 M 0 15 L 15 0" fill="none" stroke="var(--primary-text)" stroke-width="1" stroke-opacity="0.05"/>
    </pattern>
    <filter id="svgd7f4218c-shadow" x="-30%" y="-30%" width="160%" height="160%">
      <feDropShadow dx="0" dy="4" stdDeviation="5" flood-color="#000000" flood-opacity="0.15"/>
    </filter>
    <filter id="svgd7f4218c-text-glow" x="-20%" y="-20%" width="140%" height="140%">
      <feDropShadow dx="0" dy="0" stdDeviation="3" flood-color="#000000" flood-opacity="0.8"/>
    </filter>
    <radialGradient id="svgd7f4218c-universal-edge-vignette" cx="50%" cy="50%" r="72%">
      <stop offset="0%" stop-color="var(--background)" stop-opacity="0"/>
      <stop offset="72%" stop-color="var(--background)" stop-opacity="0.12"/>
      <stop offset="100%" stop-color="var(--primary-text)" stop-opacity="0.08"/>
    </radialGradient>
    <linearGradient id="svgd7f4218c-universal-surface-sheen" x1="0%" y1="0%" x2="100%" y2="100%">
      <stop offset="0%" stop-color="var(--art-sheen)" stop-opacity="var(--art-sheen-opacity)"/>
      <stop offset="46%" stop-color="var(--art-sheen)" stop-opacity="0.035"/>
      <stop offset="100%" stop-color="var(--art-panel-tint)" stop-opacity="0.14"/>
    </linearGradient>
    <radialGradient id="svgd7f4218c-universal-icon-aura" cx="50%" cy="42%" r="64%">
      <stop offset="0%" stop-color="var(--art-glow)" stop-opacity="var(--art-glow-opacity)"/>
      <stop offset="100%" stop-color="var(--background)" stop-opacity="0"/>
    </radialGradient>
    <linearGradient id="svgd7f4218c-earth-core-horizon" x1="0%" y1="0%" x2="0%" y2="100%">
      <stop offset="0%" stop-color="var(--accent-2)" stop-opacity="0.12"/>
      <stop offset="100%" stop-color="var(--background)" stop-opacity="0"/>
    </linearGradient>
    <marker id="svgd7f4218c-arrowhead" markerWidth="10" markerHeight="7" refX="9" refY="3.5" orient="auto" markerUnits="strokeWidth">
      <polygon points="0 0, 10 3.5, 0 7" fill="var(--muted-text)" opacity="0.6"/>
    </marker>
  </defs>
  <rect width="100%" height="100%" fill="var(--background)" id="CANVAS_BG"/>
  <rect width="100%" height="100%" fill="url(#svgd7f4218c-napkin-hatch)"/>
  <rect id="UNIVERSAL_EDGE_VIGNETTE" width="100%" height="100%" fill="url(#svgd7f4218c-universal-edge-vignette)" opacity="0.62"/>
  <rect id="TITLE_FRAME" x="134" y="30" width="1652" height="70" fill="none"/>
  <text id="TITLE" x="960.0" y="59" font-size="48" font-weight="700" fill="#0f172a" text-anchor="middle" style="font-size: 60px; font-family: Inter, Segoe UI, Kalam, Roboto, Helvetica, Arial, sans-serif; font-weight: 700; letter-spacing:-1.2px;" data-final-font-size="60">
    <tspan x="960.0" dy="68.00px">Layers of York's Roman Heritage</tspan>
  </text>
  <g id="DIAGRAM_MAIN">
    <rect id="EARTH_CORE_HORIZON" x="0" y="120" width="1920" height="380" fill="url(#svgd7f4218c-earth-core-horizon)" opacity="0.80"/>
    <path id="EARTH_CORE_SURFACE_GLINT" d="M 236 286 C 622 236 1298 236 1684 286" fill="none" stroke="var(--inverse-text)" stroke-width="2" stroke-opacity="0.12" stroke-linecap="round"/>
    <!-- Layer 1 -->
    <circle id="ITEM_1_BG_RING" cx="960" cy="2200" r="1800" fill="var(--accent-1)" fill-opacity="1.0" stroke="var(--accent-1)" stroke-width="2" stroke-dasharray="10 10" stroke-opacity="1.0"/>
    <!-- Layer 2 -->
    <circle id="ITEM_2_BG_RING" cx="960" cy="2200" r="1650" fill="var(--accent-2)" fill-opacity="1.0" stroke="var(--accent-2)" stroke-width="2" stroke-dasharray="10 10" stroke-opacity="1.0"/>
    <!-- Layer 3 -->
    <circle id="ITEM_3_BG_RING" cx="960" cy="2200" r="1500" fill="var(--accent-3)" fill-opacity="1.0" stroke="var(--accent-3)" stroke-width="2" stroke-dasharray="10 10" stroke-opacity="1.0"/>
    <!-- Layer 4 -->
    <circle id="ITEM_4_BG_RING" cx="960" cy="2200" r="1350" fill="var(--accent-4)" fill-opacity="1.0" stroke="var(--accent-4)" stroke-width="2" stroke-dasharray="10 10" stroke-opacity="1.0"/>
    <!-- Central Axis Line -->
    <line x1="960" y1="200" x2="960" y2="1050" stroke="var(--primary-text)" stroke-width="4" stroke-dasharray="16 12" stroke-linecap="round" opacity="0.3"/>
    <circle cx="960" cy="250.0" r="64" fill="url(#svgd7f4218c-universal-icon-aura)" opacity="0.82"/>
    <g transform="translate(960, 250.0)">
      <circle id="ITEM_1_STROKE" cx="0" cy="0" r="37" fill="transparent" stroke="var(--accent-1)" stroke-width="3" stroke-opacity="1.0"/>
      <circle id="ITEM_1_BORDER" cx="0" cy="0" r="45" fill="transparent" stroke="var(--accent-1)" stroke-width="3" stroke-dasharray="6 4" stroke-opacity="1.0"/>
      <circle id="ITEM_1_PAD" cx="0.00" cy="0.00" r="40.00" fill="var(--icon-pad-bg)" stroke="var(--primary-text)" stroke-width="2" opacity="0.9"/>
      <circle id="ITEM_1_PAD_INNER" cx="0.00" cy="0.00" r="31.20" fill="var(--accent-1)" fill-opacity="0.22"/>
      <g id="ITEM_1_ICON" transform="translate(-25, -25)" data-icon-size="50" stroke-dasharray="6 4">
        <g transform="translate(-12.711304347826086,-6.742608695652173) scale(2.893913043478261)" vector-effect="non-scaling-stroke" stroke-width="2.31" stroke-linecap="round" stroke-linejoin="round" stroke-opacity="1.0">
          <path d="M3 12C3 16 5 21 11 21" stroke="#f1f5f9" vector-effect="non-scaling-stroke" fill="none"/>
          <path d="M10 6C10 10 12 15 18 15" stroke="#f1f5f9" vector-effect="non-scaling-stroke" fill="none"/>
          <path d="M3 8.5L3 6.5" stroke="#f1f5f9" vector-effect="non-scaling-stroke" fill="none"/>
          <path d="M10 3L10 1" stroke="#f1f5f9" vector-effect="non-scaling-stroke" fill="none"/>
          <path d="M3 12L10 6" stroke="#f1f5f9" vector-effect="non-scaling-stroke" fill="none"/>
          <path d="M11 21L18 15" stroke="#f1f5f9" vector-effect="non-scaling-stroke" fill="none"/>
          <path d="M14.5 21H16.5" stroke="#f1f5f9" vector-effect="non-scaling-stroke" fill="none"/>
          <path d="M21 15H23" stroke="#f1f5f9" vector-effect="non-scaling-stroke" fill="none"/>
        </g>
      </g>
    </g>
    <!-- Connector -->
    <line id="ITEM_1_CONN" x1="920" y1="250.0" x2="670.0" y2="250.0" stroke="var(--accent-1)" stroke-width="2" stroke-dasharray="4 4" opacity="0.6" stroke-opacity="1.0"/>
    <circle cx="670.0" cy="250.0" r="5" fill="var(--accent-1)"/>
    <!-- Rigid text block -->
    <!-- _FRAME guarantees text wraps neatly within text_w -->
    <rect id="ITEM_1_TEXT_BG" x="32.0" y="159.0" width="636.0" height="207.0" rx="22" fill="var(--panel)" fill-opacity="0.94" stroke="var(--primary-text)" stroke-opacity="0.12" stroke-width="1.5"/>
    <rect x="32.0" y="159.0" width="636.0" height="207.0" rx="16" fill="url(#svgd7f4218c-universal-surface-sheen)" opacity="0.76"/>
    <rect id="ITEM_1_HEAD_FRAME" x="50.0" y="175.0" width="600" height="45" fill="none"/>
    <text id="ITEM_1_HEAD" data-bg-id="ITEM_1_TEXT_BG" x="650.0" y="175.0" font-weight="bold" font-size="28" fill="var(--primary-text)" text-anchor="end" fill-opacity="1.0" style="font-size: 30px; font-family: Inter, Segoe UI, Kalam, Roboto, Helvetica, Arial, sans-serif; font-weight: 700; letter-spacing:-0.4px;" data-final-font-size="30">
      <tspan x="650.0" dy="30.75px">Modern Surface</tspan>
    </text>
    <rect id="ITEM_1_BODY_FRAME" x="50.0" y="265.0" width="600" height="85" fill="none"/>
    <text id="ITEM_1_BODY" data-bg-id="ITEM_1_TEXT_BG" x="650.0" y="265.0" font-size="20" fill="var(--primary-text)" text-anchor="end" style="font-size: 26px; font-family: Inter, Segoe UI, Kalam, Roboto, Helvetica, Arial, sans-serif; font-weight: 400;" data-final-font-size="26">
      <tspan x="650.0" dy="25.84px">Current streets like Stonegate follow</tspan>
      <tspan x="650.0" dy="29.90px">ancient lines</tspan>
    </text>
    <circle cx="960" cy="483.33333333333337" r="64" fill="url(#svgd7f4218c-universal-icon-aura)" opacity="0.82"/>
    <g transform="translate(960, 483.33333333333337)">
      <circle id="ITEM_2_STROKE" cx="0" cy="0" r="37" fill="transparent" stroke="var(--accent-2)" stroke-width="3" stroke-opacity="1.0"/>
      <circle id="ITEM_2_BORDER" cx="0" cy="0" r="45" fill="transparent" stroke="var(--accent-2)" stroke-width="3" stroke-dasharray="6 4" stroke-opacity="1.0"/>
      <circle id="ITEM_2_PAD" cx="0.00" cy="0.00" r="40.00" fill="var(--icon-pad-bg)" stroke="var(--primary-text)" stroke-width="2" opacity="0.9"/>
      <circle id="ITEM_2_PAD_INNER" cx="0.00" cy="0.00" r="31.20" fill="var(--accent-2)" fill-opacity="0.22"/>
      <g id="ITEM_2_ICON" transform="translate(-25, -25)" data-icon-size="50" stroke-dasharray="6 4">
        <g transform="translate(-8.280000000000003,-8.540000000000001) scale(0.13)" vector-effect="non-scaling-stroke" fill="#f1f5f9" fill-opacity="1.0" stroke="none">
          <path fill="#f1f5f9" d="m18.08 23l.1 18H494V23zM254.3 54.93L133 61.6l30.1 68.5l98.1-3.6zm115.9.28l-92.9.53l3 71.96l96.8-.9zM18.23 56.43l.35 74.67l72.27-2.4l24.35-72.27zM393 64.24l-.5 47.16l15.7 21.5l85.8-6.3V64.93zM120.8 84.68l-17.6 49.82l41.1-1l-8.2-34.02zm354.7 56.02l-4 75.5l22.5-.6v-74.9zm-25.7 3.5l-97.3 10.7L346 219l110.7-3.2zm-243.8.7l-4 75.5l126.1-3.9l7-71.1zm-145.33 2.7l-3.9 75.5l126.13-3.9l-6.9-71.6zm-42 1.5l.33 72.4l24.77-.8l-6.9-71.6zm278.93 84.3L276 277.2l2.1 42l128.7-1.9l-7.6-79.7zm-40.2 1.4l-127.2 6l8 69.5l124.7 6.6zm236.6 3.1l-66.5 2.9l-7.5 75.8l74-5.2zm-474.89 7l.31 65.8l100.78-3.1l-6.9-62.7zm470.29 81.2l-115.9 10.5l-3.3 65l121.5-3.5zm-422.36 4.1l-47.52 2l.34 72.9l51.1-1.3zm17.84 0l3.98 68.5l138.64 9.6l-3-78.1zm161.22 4.3l-5.5 69l107.5 5.4l-1-73.5zm185.4 81.1l-4 75.5l66.5-.6v-73.8zm-9.8 1.2l-39 3.6l27.4 28zm-399.46 1.8l-2.13 40.6l.16 34.8H145.4v-68.9l-46.56-2.5l-18.4 14L68.56 421zm247.96.3l-111.3 1.5l3.5 72.5l114.7-2.4zm101.2 4.3l-72.2 5.9l-8.9 62.1l125.6.6l-6.2-27z" vector-effect="non-scaling-stroke" stroke="none"/>
        </g>
      </g>
    </g>
    <!-- Connector -->
    <line id="ITEM_2_CONN" x1="1000" y1="483.33333333333337" x2="1250.0" y2="483.33333333333337" stroke="var(--accent-2)" stroke-width="2" stroke-dasharray="4 4" opacity="0.6" stroke-opacity="1.0"/>
    <circle cx="1250.0" cy="483.33333333333337" r="5" fill="var(--accent-2)"/>
    <!-- Rigid text block -->
    <!-- _FRAME guarantees text wraps neatly within text_w -->
    <rect id="ITEM_2_TEXT_BG" x="1252.0" y="392.3" width="636.0" height="207.0" rx="22" fill="var(--panel)" fill-opacity="0.94" stroke="var(--primary-text)" stroke-opacity="0.12" stroke-width="1.5"/>
    <rect x="1252.0" y="392.3" width="636.0" height="207.0" rx="16" fill="url(#svgd7f4218c-universal-surface-sheen)" opacity="0.76"/>
    <rect id="ITEM_2_HEAD_FRAME" x="1270.0" y="408.33333333333337" width="600" height="45" fill="none"/>
    <text id="ITEM_2_HEAD" data-bg-id="ITEM_2_TEXT_BG" x="1270.0" y="408.33333333333337" font-weight="bold" font-size="28" fill="var(--primary-text)" text-anchor="start" fill-opacity="1.0" style="font-size: 30px; font-family: Inter, Segoe UI, Kalam, Roboto, Helvetica, Arial, sans-serif; font-weight: 700; letter-spacing:-0.4px;" data-final-font-size="30">
      <tspan x="1270.0" dy="30.75px">Medieval Layer</tspan>
    </text>
    <rect id="ITEM_2_BODY_FRAME" x="1270.0" y="498.33333333333337" width="600" height="85" fill="none"/>
    <text id="ITEM_2_BODY" data-bg-id="ITEM_2_TEXT_BG" x="1270.0" y="498.33333333333337" font-size="20" fill="var(--primary-text)" text-anchor="start" style="font-size: 26px; font-family: Inter, Segoe UI, Kalam, Roboto, Helvetica, Arial, sans-serif; font-weight: 400;" data-final-font-size="26">
      <tspan x="1270.0" dy="31.82px">Treasurers of York Minster occupied the site</tspan>
    </text>
    <circle cx="960" cy="716.6666666666667" r="64" fill="url(#svgd7f4218c-universal-icon-aura)" opacity="0.82"/>
    <g transform="translate(960, 716.6666666666667)">
      <circle id="ITEM_3_STROKE" cx="0" cy="0" r="37" fill="transparent" stroke="var(--accent-3)" stroke-width="3" stroke-opacity="1.0"/>
      <circle id="ITEM_3_BORDER" cx="0" cy="0" r="45" fill="transparent" stroke="var(--accent-3)" stroke-width="3" stroke-dasharray="6 4" stroke-opacity="1.0"/>
      <circle id="ITEM_3_PAD" cx="0.00" cy="0.00" r="40.00" fill="var(--icon-pad-bg)" stroke="var(--primary-text)" stroke-width="2" opacity="0.9"/>
      <circle id="ITEM_3_PAD_INNER" cx="0.00" cy="0.00" r="31.20" fill="var(--accent-3)" fill-opacity="0.22"/>
      <g id="ITEM_3_ICON" transform="translate(-25, -25)" data-icon-size="50" stroke-dasharray="6 4">
        <g transform="translate(-16.17113402061856,-16.49278350515464) scale(0.16082474226804125)" vector-effect="non-scaling-stroke" fill="#f1f5f9" fill-opacity="1.0" stroke="none">
          <path fill="#f1f5f9" d="M261.563 64.28A191.76 191.76 0 0 0 64.25 256a191.758 191.758 0 1 0 383.5 0A191.76 191.76 0 0 0 261.562 64.28zm-4.625 9.126l8.937 5.156v10.313l-8.938 5.156l-8.906-5.155V78.562zm3.53 29.25A153.407 153.407 0 0 1 409.407 256a153.407 153.407 0 0 1-306.812 0A153.407 153.407 0 0 1 260.47 102.656zm-11.53 20.03a133.6 133.6 0 0 0-65.157 20.908V368.22a133.6 133.6 0 0 0 65.157 21.092V122.688zm17.687.314v266.125a133.6 133.6 0 0 0 63.438-22.03V145a133.6 133.6 0 0 0-63.438-22m-100.5 34.344A133.6 133.6 0 0 0 122.405 256a133.6 133.6 0 0 0 43.72 98.78V157.345zm-60.72 1.625l8.907 5.155v10.28l-8.906 5.157l-8.937-5.156v-10.28l8.936-5.157zm300.5 0l8.94 5.155v10.28l-8.94 5.157l-8.905-5.156v-10.28l8.906-5.157zm-58.155.093V353.03A133.6 133.6 0 0 0 389.594 256a133.6 133.6 0 0 0-41.844-96.938m57.813 173.125l8.937 5.156v10.312l-8.938 5.156l-8.906-5.156v-10.312zm-299.813.718l8.938 5.156v10.313l-8.938 5.156l-8.938-5.155v-10.313l8.938-5.156zm149.906 85.188l8.938 5.156v10.313l-8.938 5.156l-8.906-5.158v-10.31z" vector-effect="non-scaling-stroke" stroke="none"/>
        </g>
      </g>
    </g>
    <!-- Connector -->
    <line id="ITEM_3_CONN" x1="920" y1="716.6666666666667" x2="670.0" y2="716.6666666666667" stroke="var(--accent-3)" stroke-width="2" stroke-dasharray="4 4" opacity="0.6" stroke-opacity="1.0"/>
    <circle cx="670.0" cy="716.6666666666667" r="5" fill="var(--accent-3)"/>
    <!-- Rigid text block -->
    <!-- _FRAME guarantees text wraps neatly within text_w -->
    <rect id="ITEM_3_TEXT_BG" x="32.0" y="625.7" width="636.0" height="207.0" rx="22" fill="var(--panel)" fill-opacity="0.94" stroke="var(--primary-text)" stroke-opacity="0.12" stroke-width="1.5"/>
    <rect x="32.0" y="625.7" width="636.0" height="207.0" rx="16" fill="url(#svgd7f4218c-universal-surface-sheen)" opacity="0.76"/>
    <rect id="ITEM_3_HEAD_FRAME" x="50.0" y="641.6666666666667" width="600" height="45" fill="none"/>
    <text id="ITEM_3_HEAD" data-bg-id="ITEM_3_TEXT_BG" x="650.0" y="641.6666666666667" font-weight="bold" font-size="28" fill="var(--primary-text)" text-anchor="end" fill-opacity="1.0" style="font-size: 30px; font-family: Inter, Segoe UI, Kalam, Roboto, Helvetica, Arial, sans-serif; font-weight: 700; letter-spacing:-0.4px;" data-final-font-size="30">
      <tspan x="650.0" dy="30.75px">Roman Foundation</tspan>
    </text>
    <rect id="ITEM_3_BODY_FRAME" x="50.0" y="731.6666666666667" width="600" height="85" fill="none"/>
    <text id="ITEM_3_BODY" data-bg-id="ITEM_3_TEXT_BG" x="650.0" y="731.6666666666667" font-size="20" fill="var(--primary-text)" text-anchor="end" style="font-size: 26px; font-family: Inter, Segoe UI, Kalam, Roboto, Helvetica, Arial, sans-serif; font-weight: 400;" data-final-font-size="26">
      <tspan x="650.0" dy="25.84px">The Ninth Legion established</tspan>
      <tspan x="650.0" dy="29.90px">the Eboracum fortress</tspan>
    </text>
    <circle cx="960" cy="900.0" r="64" fill="url(#svgd7f4218c-universal-icon-aura)" opacity="0.82"/>
    <g transform="translate(960, 900.0)">
      <circle id="ITEM_4_STROKE" cx="0" cy="0" r="37" fill="transparent" stroke="var(--accent-4)" stroke-width="3" stroke-opacity="1.0"/>
      <circle id="ITEM_4_BORDER" cx="0" cy="0" r="45" fill="transparent" stroke="var(--accent-4)" stroke-width="3" stroke-dasharray="6 4" stroke-opacity="1.0"/>
      <circle id="ITEM_4_PAD" cx="0.00" cy="0.00" r="40.00" fill="var(--icon-pad-bg)" stroke="var(--primary-text)" stroke-width="2" opacity="0.9"/>
      <circle id="ITEM_4_PAD_INNER" cx="0.00" cy="0.00" r="31.20" fill="var(--accent-4)" fill-opacity="0.22"/>
      <g id="ITEM_4_ICON" transform="translate(-25, -25)" data-icon-size="50" stroke-dasharray="6 4">
        <g transform="translate(-11.977777777777781,-11.977777777777781) scale(3.081481481481482)" vector-effect="non-scaling-stroke" stroke-width="2.31" stroke-linecap="round" stroke-linejoin="round" stroke-opacity="1.0">
          <path d="M7 10h3v-3l-3.5 -3.5a6 6 0 0 1 8 8l6 6a2 2 0 0 1 -3 3l-6 -6a6 6 0 0 1 -8 -8l3.5 3.5" vector-effect="non-scaling-stroke" fill="none" stroke="#f1f5f9"/>
        </g>
      </g>
    </g>
    <!-- Connector -->
    <line id="ITEM_4_CONN" x1="1000" y1="900.0" x2="1250.0" y2="900.0" stroke="var(--accent-4)" stroke-width="2" stroke-dasharray="4 4" opacity="0.6" stroke-opacity="1.0"/>
    <circle cx="1250.0" cy="900.0" r="5" fill="var(--accent-4)"/>
    <!-- Rigid text block -->
    <!-- _FRAME guarantees text wraps neatly within text_w -->
    <rect id="ITEM_4_TEXT_BG" x="1252.0" y="809.0" width="636.0" height="207.0" rx="22" fill="var(--panel)" fill-opacity="0.94" stroke="var(--primary-text)" stroke-opacity="0.12" stroke-width="1.5"/>
    <rect x="1252.0" y="809.0" width="636.0" height="207.0" rx="16" fill="url(#svgd7f4218c-universal-surface-sheen)" opacity="0.76"/>
    <rect id="ITEM_4_HEAD_FRAME" x="1270.0" y="825.0" width="600" height="45" fill="none"/>
    <text id="ITEM_4_HEAD" data-bg-id="ITEM_4_TEXT_BG" x="1270.0" y="825.0" font-weight="bold" font-size="28" fill="var(--primary-text)" text-anchor="start" fill-opacity="1.0" style="font-size: 30px; font-family: Inter, Segoe UI, Kalam, Roboto, Helvetica, Arial, sans-serif; font-weight: 700; letter-spacing:-0.4px;" data-final-font-size="30">
      <tspan x="1270.0" dy="30.75px">Buried Infrastructure</tspan>
    </text>
    <rect id="ITEM_4_BODY_FRAME" x="1270.0" y="915.0" width="600" height="85" fill="none"/>
    <text id="ITEM_4_BODY" data-bg-id="ITEM_4_TEXT_BG" x="1270.0" y="915.0" font-size="20" fill="var(--primary-text)" text-anchor="start" style="font-size: 26px; font-family: Inter, Segoe UI, Kalam, Roboto, Helvetica, Arial, sans-serif; font-weight: 400;" data-final-font-size="26">
      <tspan x="1270.0" dy="31.82px">Excavations reveal major Roman roads in cellars</tspan>
    </text>
  </g>
</svg>
