<?xml version='1.0' encoding='utf-8'?>
<svg xmlns="http://www.w3.org/2000/svg" width="1920" height="1080" viewBox="0 0 1920 1080" data-theme="light">
  <style>
        @font-face {
            font-family: 'Inter';
            src: url('assets/fonts/Inter-Regular.ttf') format('truetype');
            font-weight: 400;
            font-style: normal;
            font-display: swap;
        }
        @font-face {
            font-family: 'Inter';
            src: url('assets/fonts/Inter-Bold.ttf') format('truetype');
            font-weight: 600;
            font-style: normal;
            font-display: swap;
        }
        @font-face {
            font-family: 'Inter';
            src: url('assets/fonts/Inter-Bold.ttf') format('truetype');
            font-weight: 800;
            font-style: normal;
            font-display: swap;
        }
        
:root {
    --background: #f8fafc;
    --panel: #ffffff;
    --primary-text: #0f172a;
    --muted-text: #64748b;
    --inverse-text: #ffffff;
    --border: #e2e8f0;
    --shadow-color: #000000;
    --icon-pad-bg: #1e293b;
    --art-glow: #0891b2;
    --art-glow-opacity: 0.10;
    --art-sheen: #ffffff;
    --art-sheen-opacity: 0.34;
    --art-shadow: #0f172a;
    --art-shadow-opacity: 0.14;
    --art-muted-line: #94a3b8;
    --art-panel-tint: #f1f5f9;
    --font-family: 'Inter', 'Segoe UI', 'Kalam', Roboto, Helvetica, Arial, sans-serif;
    --radius-xl: 16px;
    --font-family-headline: 'Inter', 'Segoe UI', 'Kalam', Roboto, Helvetica, Arial, sans-serif;
    --font-family-body: 'Inter', 'Segoe UI', 'Kalam', Roboto, Helvetica, Arial, sans-serif;
    --font-heading: 'Inter', 'Segoe UI', 'Kalam', Roboto, Helvetica, Arial, sans-serif;
    --font-body: 'Inter', 'Segoe UI', 'Kalam', Roboto, Helvetica, Arial, sans-serif;
    --font-size-h1: 56px;
    --font-size-h2: 40px;
    --font-size-h3: 28px;
    --font-size-body: 24px;
    --font-size-caption: 18px;
    --secondary-text: var(--muted-text);
    --panel-border: var(--border);
    --font-weight-normal: 400;
    --font-weight-medium: 500;
    --font-weight-semibold: 600;
    --font-weight-bold: 700;
    --spacing-gutter-pct: 0.07;
    --spacing-top-pct: 0.15;
    --spacing-bottom-pct: 0.07;
    --spacing-title-y-pct: 0.055;
    --accent-1: #4f46e5;
    --accent-2: #059669;
    --accent-3: #db2777;
    --accent-4: #d97706;
    --accent-5: #0284c7;
    --accent-6: #7c3aed;
    --accent-7: #dc2626;
    --accent-8: #0d9488;
    --accent-9: #ea580c;
    --accent-10: #c026d3;
}
:root[data-theme="dark"] {
    --background: #0f172a;
    --panel: #1e293b;
    --primary-text: #f1f5f9;
    --muted-text: #94a3b8;
    --inverse-text: #0f172a;
    --border: #334155;
    --shadow-color: #000000;
    --icon-pad-bg: #1e293b;
    --art-glow: #7dd3fc;
    --art-glow-opacity: 0.18;
    --art-sheen: #ffffff;
    --art-sheen-opacity: 0.18;
    --art-shadow: #000000;
    --art-shadow-opacity: 0.28;
    --art-muted-line: #64748b;
    --art-panel-tint: #1e293b;
    --accent-1: #a5b4fc;
    --accent-2: #34d399;
    --accent-3: #f472b6;
    --accent-4: #fbbf24;
    --accent-5: #38bdf8;
    --accent-6: #c084fc;
    --accent-7: #f87171;
    --accent-8: #2dd4bf;
    --accent-9: #fb923c;
    --accent-10: #e879f9;
}
:root[data-theme="light"] {
    --background: #f8fafc;
    --panel: #ffffff;
    --primary-text: #0f172a;
    --muted-text: #64748b;
    --inverse-text: #ffffff;
    --border: #e2e8f0;
    --shadow-color: #000000;
    --icon-pad-bg: #1e293b;
    --art-glow: #0891b2;
    --art-glow-opacity: 0.10;
    --art-sheen: #ffffff;
    --art-sheen-opacity: 0.34;
    --art-shadow: #0f172a;
    --art-shadow-opacity: 0.14;
    --art-muted-line: #94a3b8;
    --art-panel-tint: #f1f5f9;
    --accent-1: #4f46e5;
    --accent-2: #059669;
    --accent-3: #db2777;
    --accent-4: #d97706;
    --accent-5: #0284c7;
    --accent-6: #7c3aed;
    --accent-7: #dc2626;
    --accent-8: #0d9488;
    --accent-9: #ea580c;
    --accent-10: #c026d3;
}</style>
  <rect x="0" y="0" width="1.92E+3" height="1.08E+3" fill="#252a34" stroke="none" id="programmatic_background"/>
  <line id="HEADER_DECOR" x1="960.0" x2="1080.0" y1="75.0" y2="75.0" stroke="var(--accent-1)" stroke-width="6" stroke-linecap="round"/>
  <defs>
    <filter id="svg37091e2a-neon-glow" x="-50%" y="-50%" width="200%" height="200%">
      <feGaussianBlur stdDeviation="6" result="blur"/>
      <feComposite in="SourceGraphic" in2="blur" operator="over"/>
    </filter>
    <radialGradient id="svg37091e2a-universal-edge-vignette" cx="50%" cy="50%" r="72%">
      <stop offset="0%" stop-color="var(--background)" stop-opacity="0"/>
      <stop offset="72%" stop-color="var(--background)" stop-opacity="0.12"/>
      <stop offset="100%" stop-color="var(--primary-text)" stop-opacity="0.08"/>
    </radialGradient>
    <linearGradient id="svg37091e2a-universal-surface-sheen" x1="0%" y1="0%" x2="100%" y2="100%">
      <stop offset="0%" stop-color="var(--art-sheen)" stop-opacity="var(--art-sheen-opacity)"/>
      <stop offset="46%" stop-color="var(--art-sheen)" stop-opacity="0.035"/>
      <stop offset="100%" stop-color="var(--art-panel-tint)" stop-opacity="0.14"/>
    </linearGradient>
    <radialGradient id="svg37091e2a-universal-icon-aura" cx="50%" cy="42%" r="64%">
      <stop offset="0%" stop-color="var(--art-glow)" stop-opacity="var(--art-glow-opacity)"/>
      <stop offset="100%" stop-color="var(--background)" stop-opacity="0"/>
    </radialGradient>
    <radialGradient id="svg37091e2a-tree-roots-art-glow" cx="50%" cy="52%" r="68%">
      <stop offset="0%" stop-color="var(--inverse-text)" stop-opacity="0.14"/>
      <stop offset="100%" stop-color="var(--background)" stop-opacity="0"/>
    </radialGradient>
    <linearGradient id="svg37091e2a-tree-roots-art-sheen" x1="16%" y1="0%" x2="86%" y2="100%">
      <stop offset="0%" stop-color="var(--inverse-text)" stop-opacity="0.22"/>
      <stop offset="52%" stop-color="var(--inverse-text)" stop-opacity="0.035"/>
      <stop offset="100%" stop-color="var(--background)" stop-opacity="0.14"/>
    </linearGradient>
    <filter id="svg37091e2a-text-glow" x="-20%" y="-20%" width="140%" height="140%">
      <feDropShadow dx="0" dy="0" stdDeviation="2" flood-color="#000000" flood-opacity="0.4"/>
    </filter>
    <filter id="svg37091e2a-shadow" x="-30%" y="-30%" width="160%" height="160%">
      <feDropShadow dx="0" dy="2" stdDeviation="3" flood-color="#000000" flood-opacity="0.08"/>
      <feDropShadow dx="0" dy="6" stdDeviation="10" flood-color="#000000" flood-opacity="0.12"/>
    </filter>
    <marker id="svg37091e2a-arrowhead" markerWidth="10" markerHeight="7" refX="9" refY="3.5" orient="auto" markerUnits="strokeWidth">
      <polygon points="0 0, 10 3.5, 0 7" fill="var(--muted-text)" opacity="0.6"/>
    </marker>
  </defs>
  <rect width="100%" height="100%" fill="var(--background)" id="CANVAS_BG"/>
  <ellipse id="TREE-ROOTS_ART_GLOW" cx="960" cy="600" rx="720" ry="390" fill="url(#svg37091e2a-tree-roots-art-glow)" opacity="0.90"/>
  <rect id="UNIVERSAL_EDGE_VIGNETTE" width="100%" height="100%" fill="url(#svg37091e2a-universal-edge-vignette)" opacity="0.62"/>
  <!-- Subtle dirt/background texture behind roots -->
  <rect x="0" y="280" width="1920" height="800" fill="var(--primary-text)" opacity="0.04"/>
  <g transform="translate(0, 0)">
    <!-- Ground Line -->
    <path d="M 0 280 L 1920 280" fill="none" stroke="var(--primary-text)" stroke-width="4" stroke-dasharray="10 20" opacity="0.3"/>
    <!-- Tree Canopy -->
    <g id="TREE_CANOPY" opacity="0.58">
      <circle cx="900.0" cy="210" r="70" fill="var(--panel)" stroke="var(--primary-text)" stroke-width="2"/>
      <circle cx="1020.0" cy="210" r="70" fill="var(--panel)" stroke="var(--primary-text)" stroke-width="2"/>
      <circle cx="960.0" cy="190" r="80" fill="var(--panel)" stroke="var(--primary-text)" stroke-width="2"/>
      <circle cx="960.0" cy="160" r="40" fill="var(--panel)" stroke="var(--primary-text)" stroke-width="2"/>
    </g>
    <!-- Tree Trunk -->
    <path d="M 910.0 280 C 910.0 235, 895.0 190, 900.0 140 L 1020.0 140 C 1025.0 190, 1010.0 235, 1010.0 280 Z" fill="var(--panel)" stroke="var(--primary-text)" stroke-width="2" filter="url(#svg37091e2a-neon-glow)"/>
    <!-- Trunk abstract rings -->
    <ellipse cx="960.0" cy="242" rx="34.0" ry="44" fill="none" stroke="var(--background)" stroke-width="6" opacity="0.3"/>
    <rect id="TITLE_FRAME" x="660.0" y="20" width="600" height="80" fill="none"/>
    <text id="TITLE" x="960.0" y="59" font-size="34" font-weight="900" fill="#0f172a" text-anchor="middle" alignment-baseline="middle" style="font-size: 60px; font-family: Inter, Segoe UI, Kalam, Roboto, Helvetica, Arial, sans-serif; font-weight: 700; letter-spacing:-1.2px;" data-final-font-size="60">
      <tspan x="960.0" dy="68.00px">Building Sources of Musty Odors</tspan>
    </text>
  </g>
  <g transform="translate(0, 0)">
    <!-- Root Core Line -->
    <path d="M 900.0 280 C 812.0 400.0, 548.0 420.0, 460.0 480" fill="none" stroke="var(--accent-1)" stroke-width="10" stroke-linecap="round" filter="url(#svg37091e2a-neon-glow)" opacity="0.9"/>
    <path d="M 900.0 280 C 812.0 400.0, 548.0 420.0, 460.0 480" fill="none" stroke="var(--background)" stroke-width="4" stroke-linecap="round"/>
    <!-- Secondary stylistic root tendril -->
    <path d="M 900.0 280 C 804.0 376.0, 516.0 392.0, 420.0 440" fill="none" stroke="var(--accent-1)" stroke-width="3" filter="url(#svg37091e2a-neon-glow)" opacity="0.45"/>
    <!-- Deep Root Terminal -->
    <circle cx="460.0" cy="480" r="53" fill="none" stroke="var(--accent-1)" stroke-width="2" stroke-dasharray="8 4" opacity="0.6"/>
    <circle cx="460.0" cy="480" r="45" fill="var(--panel)" stroke="var(--accent-1)" stroke-width="4" filter="url(#svg37091e2a-neon-glow)"/>
    <circle id="ITEM_1_PAD" cx="460.00" cy="480.00" r="40.00" fill="var(--icon-pad-bg)" stroke="var(--primary-text)" stroke-width="2" opacity="0.9"/>
    <circle id="ITEM_1_PAD_INNER" cx="460.00" cy="480.00" r="31.20" fill="var(--accent-9)" fill-opacity="0.22"/>
    <g id="ITEM_1_ICON" transform="translate(435.0, 455)" data-icon-size="50" stroke-dasharray="6 4">
      <g transform="translate(-11.977777777777781,-10.533333333333337) scale(3.081481481481482)" vector-effect="non-scaling-stroke" fill="#f1f5f9" fill-opacity="1.0" stroke="none">
        <path fill="#f1f5f9" d="M19 16h3L12 7L2 16h3l7-6.31zM7 8.81V7H4v4.5z" vector-effect="non-scaling-stroke" stroke="none"/>
      </g>
    </g>
    <rect id="ITEM_1_TEXT_BG" x="37.0" y="414.0" width="376.0" height="222.0" rx="22" fill="var(--panel)" fill-opacity="0.97" stroke="var(--primary-text)" stroke-opacity="0.22" stroke-width="2.2"/>
    <text id="ITEM_1_HEAD" data-bg-id="ITEM_1_TEXT_BG" x="395.0" y="430.0" font-weight="bold" font-size="25" fill="var(--primary-text)" text-anchor="end" fill-opacity="1.0" style="font-size: 30px; font-family: Inter, Segoe UI, Kalam, Roboto, Helvetica, Arial, sans-serif; font-weight: 700; letter-spacing:-0.4px;" data-final-font-size="30">
      <tspan x="395.0" dy="28.25px">Roof Leakage</tspan>
    </text>
    <rect id="ITEM_1_HEAD_FRAME" x="95.0" y="430" width="300" height="40" fill="none"/>
    <text id="ITEM_1_BODY" data-bg-id="ITEM_1_TEXT_BG" x="395.0" y="500.0" font-size="17" fill="var(--primary-text)" text-anchor="end" style="font-size: 26px; font-family: Inter, Segoe UI, Kalam, Roboto, Helvetica, Arial, sans-serif; font-weight: 400;" data-final-font-size="26">
      <tspan x="395.0" dy="26.86px">Water penetrates through</tspan>
      <tspan x="395.0" dy="29.90px">roofing to wet insulation</tspan>
      <tspan x="395.0" dy="29.90px">and timber</tspan>
    </text>
    <rect id="ITEM_1_BODY_FRAME" x="55" y="500" width="340" height="120" fill="none"/>
  </g>
  <g transform="translate(0, 0)">
    <!-- Root Core Line -->
    <path d="M 930.0 280 C 886.0 550.0, 754.0 595.0, 710.0 730" fill="none" stroke="var(--accent-2)" stroke-width="10" stroke-linecap="round" filter="url(#svg37091e2a-neon-glow)" opacity="0.9"/>
    <path d="M 930.0 280 C 886.0 550.0, 754.0 595.0, 710.0 730" fill="none" stroke="var(--background)" stroke-width="4" stroke-linecap="round"/>
    <!-- Secondary stylistic root tendril -->
    <path d="M 930.0 280 C 878.0 526.0, 722.0 567.0, 670.0 690" fill="none" stroke="var(--accent-2)" stroke-width="3" filter="url(#svg37091e2a-neon-glow)" opacity="0.45"/>
    <!-- Deep Root Terminal -->
    <circle cx="710.0" cy="730" r="53" fill="none" stroke="var(--accent-2)" stroke-width="2" stroke-dasharray="8 4" opacity="0.6"/>
    <circle cx="710.0" cy="730" r="45" fill="var(--panel)" stroke="var(--accent-2)" stroke-width="4" filter="url(#svg37091e2a-neon-glow)"/>
    <circle id="ITEM_2_PAD" cx="710.00" cy="730.00" r="40.00" fill="var(--icon-pad-bg)" stroke="var(--primary-text)" stroke-width="2" opacity="0.9"/>
    <circle id="ITEM_2_PAD_INNER" cx="710.00" cy="730.00" r="31.20" fill="var(--accent-10)" fill-opacity="0.22"/>
    <g id="ITEM_2_ICON" transform="translate(685.0, 705)" data-icon-size="50" stroke-dasharray="6 4">
      <g transform="translate(-11.977777777777781,-11.977777777777781) scale(3.081481481481482)" vector-effect="non-scaling-stroke" stroke-width="2.31" stroke-linecap="round" stroke-linejoin="round" stroke-opacity="1.0">
        <rect width="18" height="18" x="3" y="3" rx="2" vector-effect="non-scaling-stroke" fill="none" stroke="#f1f5f9"/>
        <path d="M12 9v6" vector-effect="non-scaling-stroke" fill="none" stroke="#f1f5f9"/>
        <path d="M16 15v6" vector-effect="non-scaling-stroke" fill="none" stroke="#f1f5f9"/>
        <path d="M16 3v6" vector-effect="non-scaling-stroke" fill="none" stroke="#f1f5f9"/>
        <path d="M3 15h18" vector-effect="non-scaling-stroke" fill="none" stroke="#f1f5f9"/>
        <path d="M3 9h18" vector-effect="non-scaling-stroke" fill="none" stroke="#f1f5f9"/>
        <path d="M8 15v6" vector-effect="non-scaling-stroke" fill="none" stroke="#f1f5f9"/>
        <path d="M8 3v6" vector-effect="non-scaling-stroke" fill="none" stroke="#f1f5f9"/>
      </g>
    </g>
    <rect id="ITEM_2_TEXT_BG" x="247.0" y="664.0" width="416.0" height="222.0" rx="22" fill="var(--panel)" fill-opacity="0.97" stroke="var(--primary-text)" stroke-opacity="0.22" stroke-width="2.2"/>
    <text id="ITEM_2_HEAD" data-bg-id="ITEM_2_TEXT_BG" x="645.0" y="680.0" font-weight="bold" font-size="25" fill="var(--accent-10)" text-anchor="end" fill-opacity="1.0" style="font-size: 30px; font-family: Inter, Segoe UI, Kalam, Roboto, Helvetica, Arial, sans-serif; font-weight: 700; letter-spacing:-0.4px;" data-final-font-size="30">
      <tspan x="645.0" dy="28.25px">Masonry Penetration</tspan>
    </text>
    <rect id="ITEM_2_HEAD_FRAME" x="325.0" y="680" width="320" height="40" fill="none"/>
    <text id="ITEM_2_BODY" data-bg-id="ITEM_2_TEXT_BG" x="645.0" y="750.0" font-size="17" fill="var(--primary-text)" text-anchor="end" style="font-size: 26px; font-family: Inter, Segoe UI, Kalam, Roboto, Helvetica, Arial, sans-serif; font-weight: 400;" data-final-font-size="26">
      <tspan x="645.0" dy="32.84px">External moisture seeps</tspan>
      <tspan x="645.0" dy="29.90px">through brick and stone walls</tspan>
    </text>
    <rect id="ITEM_2_BODY_FRAME" x="265" y="750" width="380" height="120" fill="none"/>
  </g>
  <g transform="translate(0, 0)">
    <!-- Root Core Line -->
    <path d="M 960.0 280 C 960.0 670.0, 960.0 735.0, 960.0 930" fill="none" stroke="var(--accent-3)" stroke-width="10" stroke-linecap="round" filter="url(#svg37091e2a-neon-glow)" opacity="0.9"/>
    <path d="M 960.0 280 C 960.0 670.0, 960.0 735.0, 960.0 930" fill="none" stroke="var(--background)" stroke-width="4" stroke-linecap="round"/>
    <!-- Secondary stylistic root tendril -->
    <path d="M 960.0 280 C 952.0 646.0, 928.0 707.0, 920.0 890" fill="none" stroke="var(--accent-3)" stroke-width="3" filter="url(#svg37091e2a-neon-glow)" opacity="0.45"/>
    <!-- Deep Root Terminal -->
    <circle cx="960.0" cy="930" r="53" fill="none" stroke="var(--accent-3)" stroke-width="2" stroke-dasharray="8 4" opacity="0.6"/>
    <circle cx="960.0" cy="930" r="45" fill="var(--panel)" stroke="var(--accent-3)" stroke-width="4" filter="url(#svg37091e2a-neon-glow)"/>
    <circle id="ITEM_3_PAD" cx="960.00" cy="930.00" r="40.00" fill="var(--icon-pad-bg)" stroke="var(--primary-text)" stroke-width="2" opacity="0.9"/>
    <circle id="ITEM_3_PAD_INNER" cx="960.00" cy="930.00" r="31.20" fill="var(--accent-1)" fill-opacity="0.22"/>
    <g id="ITEM_3_ICON" transform="translate(935.0, 905)" data-icon-size="50" stroke-dasharray="6 4">
      <g transform="translate(-11.977777777777781,-11.111111111111116) scale(3.081481481481482)" vector-effect="non-scaling-stroke" fill="#f1f5f9" fill-opacity="1.0" stroke="none">
        <path fill="#f1f5f9" d="M2 5v8h2v-2h6l2-2l-2-2H4V5zm18 0v2h-8l2 2l-2 2h8v2h2V5zm-8 8s-2 2.17-2 3.5a2 2 0 0 0 2 2a2 2 0 0 0 2-2c0-1.33-2-3.5-2-3.5" vector-effect="non-scaling-stroke" stroke="none"/>
      </g>
    </g>
    <rect id="ITEM_3_TEXT_BG" x="532.0" y="824.0" width="356.0" height="210.0" rx="22" fill="var(--panel)" fill-opacity="0.97" stroke="var(--primary-text)" stroke-opacity="0.22" stroke-width="2.2"/>
    <text id="ITEM_3_HEAD" data-bg-id="ITEM_3_TEXT_BG" x="870.0" y="840.0" font-weight="bold" font-size="25" fill="var(--accent-1)" text-anchor="end" fill-opacity="1.0" style="font-size: 30px; font-family: Inter, Segoe UI, Kalam, Roboto, Helvetica, Arial, sans-serif; font-weight: 700; letter-spacing:-0.4px;" data-final-font-size="30">
      <tspan x="870.0" dy="28.25px">Plumbing Leaks</tspan>
    </text>
    <rect id="ITEM_3_HEAD_FRAME" x="570.0" y="840" width="300" height="40" fill="none"/>
    <text id="ITEM_3_BODY" data-bg-id="ITEM_3_TEXT_BG" x="870.0" y="910.0" font-size="17" fill="var(--primary-text)" text-anchor="end" style="font-size: 26px; font-family: Inter, Segoe UI, Kalam, Roboto, Helvetica, Arial, sans-serif; font-weight: 400;" data-final-font-size="26">
      <tspan x="870.0" dy="22.06px">Concealed pipe failures</tspan>
      <tspan x="870.0" dy="29.90px">release water behind</tspan>
      <tspan x="870.0" dy="29.90px">interior walls</tspan>
    </text>
    <rect id="ITEM_3_BODY_FRAME" x="550" y="910" width="320" height="96" fill="none"/>
  </g>
  <g transform="translate(0, 0)">
    <!-- Root Core Line -->
    <path d="M 990.0 280 C 1034.0 550.0, 1166.0 595.0, 1210.0 730" fill="none" stroke="var(--accent-4)" stroke-width="10" stroke-linecap="round" filter="url(#svg37091e2a-neon-glow)" opacity="0.9"/>
    <path d="M 990.0 280 C 1034.0 550.0, 1166.0 595.0, 1210.0 730" fill="none" stroke="var(--background)" stroke-width="4" stroke-linecap="round"/>
    <!-- Secondary stylistic root tendril -->
    <path d="M 990.0 280 C 1042.0 526.0, 1198.0 567.0, 1250.0 690" fill="none" stroke="var(--accent-4)" stroke-width="3" filter="url(#svg37091e2a-neon-glow)" opacity="0.45"/>
    <!-- Deep Root Terminal -->
    <circle cx="1210.0" cy="730" r="53" fill="none" stroke="var(--accent-4)" stroke-width="2" stroke-dasharray="8 4" opacity="0.6"/>
    <circle cx="1210.0" cy="730" r="45" fill="var(--panel)" stroke="var(--accent-4)" stroke-width="4" filter="url(#svg37091e2a-neon-glow)"/>
    <circle id="ITEM_4_PAD" cx="1210.00" cy="730.00" r="40.00" fill="var(--icon-pad-bg)" stroke="var(--primary-text)" stroke-width="2" opacity="0.9"/>
    <circle id="ITEM_4_PAD_INNER" cx="1210.00" cy="730.00" r="31.20" fill="var(--accent-2)" fill-opacity="0.22"/>
    <g id="ITEM_4_ICON" transform="translate(1185.0, 705)" data-icon-size="50" stroke-dasharray="6 4">
      <g transform="translate(-10.65714285714286,-10.65714285714286) scale(2.2285714285714286)">
        <path d="M2 6C2 3.79086 3.79086 2 6 2H26C28.2091 2 30 3.79086 30 6V26C30 28.2091 28.2091 30 26 30H6C3.79086 30 2 28.2091 2 26V6Z" fill="#D3D3D3"/>
        <path d="M14.8535 17.1464L8 20L5.43933 26.5607C5.71078 26.8321 6.08578 27 6.49999 27H14.5C14.7761 27 15 26.7761 15 26.5V17.5C15 17.3619 14.944 17.2369 14.8535 17.1464Z" fill="#83CBFF"/>
        <path d="M17.5 27H25.5C26.3284 27 27 26.3284 27 25.5V17.5C27 17.2238 26.7761 17 26.5 17H17.5C17.2238 17 17 17.2238 17 17.5V26.5C17 26.7761 17.2238 27 17.5 27Z" fill="#83CBFF"/>
        <path d="M27 14.5V6.49999C27 6.08578 26.8321 5.71078 26.5606 5.43933L19 8L17.1464 14.8535C17.2369 14.944 17.3619 15 17.5 15H26.5C26.7761 15 27 14.7761 27 14.5Z" fill="#83CBFF"/>
        <path d="M5 6.5C5 5.67157 5.67157 5 6.5 5H14.5C14.7761 5 15 5.22386 15 5.5V14.5C15 14.7761 14.7761 15 14.5 15H5.5C5.22386 15 5 14.7761 5 14.5V6.5Z" fill="#00A6ED"/>
        <path d="M5 17.5C5 17.2239 5.22386 17 5.5 17H14.5C14.6381 17 14.7631 17.056 14.8536 17.1464L5.43934 26.5607C5.16789 26.2892 5 25.9142 5 25.5V17.5Z" fill="#00A6ED"/>
        <path d="M26.5607 5.43934C26.2892 5.16789 25.9142 5 25.5 5H17.5C17.2239 5 17 5.22386 17 5.5V14.5C17 14.6381 17.056 14.7631 17.1464 14.8536L26.5607 5.43934Z" fill="#00A6ED"/>
      </g>
    </g>
    <rect id="ITEM_4_TEXT_BG" x="1257.0" y="664.0" width="416.0" height="222.0" rx="22" fill="var(--panel)" fill-opacity="0.97" stroke="var(--primary-text)" stroke-opacity="0.22" stroke-width="2.2"/>
    <text id="ITEM_4_HEAD" data-bg-id="ITEM_4_TEXT_BG" x="1275.0" y="680.0" font-weight="bold" font-size="25" fill="var(--primary-text)" text-anchor="start" fill-opacity="1.0" style="font-size: 30px; font-family: Inter, Segoe UI, Kalam, Roboto, Helvetica, Arial, sans-serif; font-weight: 700; letter-spacing:-0.4px;" data-final-font-size="30">
      <tspan x="1275.0" dy="28.25px">Surface Condensation</tspan>
    </text>
    <rect id="ITEM_4_HEAD_FRAME" x="1275.0" y="680" width="320" height="40" fill="none"/>
    <text id="ITEM_4_BODY" data-bg-id="ITEM_4_TEXT_BG" x="1275.0" y="750.0" font-size="17" fill="var(--primary-text)" text-anchor="start" style="font-size: 26px; font-family: Inter, Segoe UI, Kalam, Roboto, Helvetica, Arial, sans-serif; font-weight: 400;" data-final-font-size="26">
      <tspan x="1275.0" dy="32.84px">Humidity turns into liquid</tspan>
      <tspan x="1275.0" dy="29.90px">on cold interior surfaces</tspan>
    </text>
    <rect id="ITEM_4_BODY_FRAME" x="1275" y="750" width="380" height="120" fill="none"/>
  </g>
  <g transform="translate(0, 0)">
    <!-- Root Core Line -->
    <path d="M 1020.0 280 C 1108.0 400.0, 1372.0 420.0, 1460.0 480" fill="none" stroke="var(--accent-5)" stroke-width="10" stroke-linecap="round" filter="url(#svg37091e2a-neon-glow)" opacity="0.9"/>
    <path d="M 1020.0 280 C 1108.0 400.0, 1372.0 420.0, 1460.0 480" fill="none" stroke="var(--background)" stroke-width="4" stroke-linecap="round"/>
    <!-- Secondary stylistic root tendril -->
    <path d="M 1020.0 280 C 1116.0 376.0, 1404.0 392.0, 1500.0 440" fill="none" stroke="var(--accent-5)" stroke-width="3" filter="url(#svg37091e2a-neon-glow)" opacity="0.45"/>
    <!-- Deep Root Terminal -->
    <circle cx="1460.0" cy="480" r="53" fill="none" stroke="var(--accent-5)" stroke-width="2" stroke-dasharray="8 4" opacity="0.6"/>
    <circle cx="1460.0" cy="480" r="45" fill="var(--panel)" stroke="var(--accent-5)" stroke-width="4" filter="url(#svg37091e2a-neon-glow)"/>
    <circle id="ITEM_5_PAD" cx="1460.00" cy="480.00" r="40.00" fill="var(--icon-pad-bg)" stroke="var(--primary-text)" stroke-width="2" opacity="0.9"/>
    <circle id="ITEM_5_PAD_INNER" cx="1460.00" cy="480.00" r="31.20" fill="var(--accent-3)" fill-opacity="0.22"/>
    <g id="ITEM_5_ICON" transform="translate(1435.0, 455)" data-icon-size="50" stroke-dasharray="6 4">
      <g transform="translate(-8.844067796610172,-10.166101694915259) scale(2.820338983050848)" vector-effect="non-scaling-stroke" stroke-width="2.31" stroke-linecap="round" stroke-linejoin="round" stroke-opacity="1.0">
        <path d="M18 17.5a2.5 2.5 0 1 1-4 2.03V12" vector-effect="non-scaling-stroke" fill="none" stroke="#f1f5f9"/>
        <path d="M6 12H4a2 2 0 0 1-2-2V5a2 2 0 0 1 2-2h16a2 2 0 0 1 2 2v5a2 2 0 0 1-2 2h-2" vector-effect="non-scaling-stroke" fill="none" stroke="#f1f5f9"/>
        <path d="M6 8h12" vector-effect="non-scaling-stroke" fill="none" stroke="#f1f5f9"/>
        <path d="M6.6 15.572A2 2 0 1 0 10 17v-5" vector-effect="non-scaling-stroke" fill="none" stroke="#f1f5f9"/>
      </g>
    </g>
    <rect id="ITEM_5_TEXT_BG" x="1507.0" y="414.0" width="376.0" height="222.0" rx="22" fill="var(--panel)" fill-opacity="0.97" stroke="var(--primary-text)" stroke-opacity="0.22" stroke-width="2.2"/>
    <text id="ITEM_5_HEAD" data-bg-id="ITEM_5_TEXT_BG" x="1525.0" y="430.0" font-weight="bold" font-size="25" fill="var(--accent-3)" text-anchor="start" fill-opacity="1.0" style="font-size: 30px; font-family: Inter, Segoe UI, Kalam, Roboto, Helvetica, Arial, sans-serif; font-weight: 700; letter-spacing:-0.4px;" data-final-font-size="30">
      <tspan x="1525.0" dy="28.25px">Poor Ventilation</tspan>
    </text>
    <rect id="ITEM_5_HEAD_FRAME" x="1525.0" y="430" width="320" height="40" fill="none"/>
    <text id="ITEM_5_BODY" data-bg-id="ITEM_5_TEXT_BG" x="1525.0" y="500.0" font-size="17" fill="var(--primary-text)" text-anchor="start" style="font-size: 26px; font-family: Inter, Segoe UI, Kalam, Roboto, Helvetica, Arial, sans-serif; font-weight: 400;" data-final-font-size="26">
      <tspan x="1525.0" dy="26.86px">Stagnant air allows</tspan>
      <tspan x="1525.0" dy="29.90px">humidity to accumulate</tspan>
      <tspan x="1525.0" dy="29.90px">in sealed spaces</tspan>
    </text>
    <rect id="ITEM_5_BODY_FRAME" x="1525" y="500" width="340" height="120" fill="none"/>
  </g>
</svg>
