<?xml version='1.0' encoding='utf-8'?>
<svg xmlns="http://www.w3.org/2000/svg" width="1920" height="1080" viewBox="0 0 1920 1080" data-theme="light">
  <style>
        @font-face {
            font-family: 'Inter';
            src: url('assets/fonts/Inter-Regular.ttf') format('truetype');
            font-weight: 400;
            font-style: normal;
            font-display: swap;
        }
        @font-face {
            font-family: 'Inter';
            src: url('assets/fonts/Inter-Bold.ttf') format('truetype');
            font-weight: 600;
            font-style: normal;
            font-display: swap;
        }
        @font-face {
            font-family: 'Inter';
            src: url('assets/fonts/Inter-Bold.ttf') format('truetype');
            font-weight: 800;
            font-style: normal;
            font-display: swap;
        }
        
:root {
    --background: #f8fafc;
    --panel: #ffffff;
    --primary-text: #0f172a;
    --muted-text: #64748b;
    --inverse-text: #ffffff;
    --border: #e2e8f0;
    --shadow-color: #000000;
    --icon-pad-bg: #1e293b;
    --art-glow: #0891b2;
    --art-glow-opacity: 0.10;
    --art-sheen: #ffffff;
    --art-sheen-opacity: 0.34;
    --art-shadow: #0f172a;
    --art-shadow-opacity: 0.14;
    --art-muted-line: #94a3b8;
    --art-panel-tint: #f1f5f9;
    --font-family: 'Inter', 'Segoe UI', 'Kalam', Roboto, Helvetica, Arial, sans-serif;
    --radius-xl: 16px;
    --font-family-headline: 'Inter', 'Segoe UI', 'Kalam', Roboto, Helvetica, Arial, sans-serif;
    --font-family-body: 'Inter', 'Segoe UI', 'Kalam', Roboto, Helvetica, Arial, sans-serif;
    --font-heading: 'Inter', 'Segoe UI', 'Kalam', Roboto, Helvetica, Arial, sans-serif;
    --font-body: 'Inter', 'Segoe UI', 'Kalam', Roboto, Helvetica, Arial, sans-serif;
    --font-size-h1: 56px;
    --font-size-h2: 40px;
    --font-size-h3: 28px;
    --font-size-body: 24px;
    --font-size-caption: 18px;
    --secondary-text: var(--muted-text);
    --panel-border: var(--border);
    --font-weight-normal: 400;
    --font-weight-medium: 500;
    --font-weight-semibold: 600;
    --font-weight-bold: 700;
    --spacing-gutter-pct: 0.07;
    --spacing-top-pct: 0.15;
    --spacing-bottom-pct: 0.07;
    --spacing-title-y-pct: 0.055;
    --accent-1: #3b82f6;
    --accent-2: #22c55e;
    --accent-3: #f59e0b;
    --accent-4: #ec4899;
    --accent-5: #8b5cf6;
    --accent-6: #06b6d4;
}
:root[data-theme="dark"] {
    --background: #0f172a;
    --panel: #1e293b;
    --primary-text: #f1f5f9;
    --muted-text: #94a3b8;
    --inverse-text: #0f172a;
    --border: #334155;
    --shadow-color: #000000;
    --icon-pad-bg: #1e293b;
    --art-glow: #7dd3fc;
    --art-glow-opacity: 0.18;
    --art-sheen: #ffffff;
    --art-sheen-opacity: 0.18;
    --art-shadow: #000000;
    --art-shadow-opacity: 0.28;
    --art-muted-line: #64748b;
    --art-panel-tint: #1e293b;
    --accent-1: #93c5fd;
    --accent-2: #86efac;
    --accent-3: #fcd34d;
    --accent-4: #f9a8d4;
    --accent-5: #c4b5fd;
    --accent-6: #a5f3fc;
}
:root[data-theme="light"] {
    --background: #f8fafc;
    --panel: #ffffff;
    --primary-text: #0f172a;
    --muted-text: #64748b;
    --inverse-text: #ffffff;
    --border: #e2e8f0;
    --shadow-color: #000000;
    --icon-pad-bg: #1e293b;
    --art-glow: #0891b2;
    --art-glow-opacity: 0.10;
    --art-sheen: #ffffff;
    --art-sheen-opacity: 0.34;
    --art-shadow: #0f172a;
    --art-shadow-opacity: 0.14;
    --art-muted-line: #94a3b8;
    --art-panel-tint: #f1f5f9;
    --accent-1: #3b82f6;
    --accent-2: #22c55e;
    --accent-3: #f59e0b;
    --accent-4: #ec4899;
    --accent-5: #8b5cf6;
    --accent-6: #06b6d4;
}</style>
  <rect x="0" y="0" width="1.92E+3" height="1.08E+3" fill="#252a34" stroke="none" id="programmatic_background"/>
  <line id="HEADER_DECOR" x1="960.0" x2="1080.0" y1="115.0" y2="115.0" stroke="var(--accent-1)" stroke-width="6" stroke-linecap="round"/>
  <defs>
    <pattern id="svgffe4f1b6-napkin-hatch" patternUnits="userSpaceOnUse" width="12" height="12">
      <path d="M -3 12 L 12 -3 M 0 15 L 15 0" fill="none" stroke="var(--primary-text)" stroke-width="1" stroke-opacity="0.05"/>
    </pattern>
    <filter id="svgffe4f1b6-shadow" x="-30%" y="-30%" width="160%" height="160%">
      <feDropShadow dx="0" dy="2" stdDeviation="3" flood-color="#000000" flood-opacity="0.08"/>
      <feDropShadow dx="0" dy="6" stdDeviation="10" flood-color="#000000" flood-opacity="0.12"/>
    </filter>
    <radialGradient id="svgffe4f1b6-universal-edge-vignette" cx="50%" cy="50%" r="72%">
      <stop offset="0%" stop-color="var(--background)" stop-opacity="0"/>
      <stop offset="72%" stop-color="var(--background)" stop-opacity="0.12"/>
      <stop offset="100%" stop-color="var(--primary-text)" stop-opacity="0.08"/>
    </radialGradient>
    <linearGradient id="svgffe4f1b6-universal-surface-sheen" x1="0%" y1="0%" x2="100%" y2="100%">
      <stop offset="0%" stop-color="var(--art-sheen)" stop-opacity="var(--art-sheen-opacity)"/>
      <stop offset="46%" stop-color="var(--art-sheen)" stop-opacity="0.035"/>
      <stop offset="100%" stop-color="var(--art-panel-tint)" stop-opacity="0.14"/>
    </linearGradient>
    <radialGradient id="svgffe4f1b6-universal-icon-aura" cx="50%" cy="42%" r="64%">
      <stop offset="0%" stop-color="var(--art-glow)" stop-opacity="var(--art-glow-opacity)"/>
      <stop offset="100%" stop-color="var(--background)" stop-opacity="0"/>
    </radialGradient>
    <linearGradient id="svgffe4f1b6-taxonomy-node-sheen" x1="0%" y1="0%" x2="100%" y2="100%">
      <stop offset="0%" stop-color="var(--inverse-text)" stop-opacity="0.18"/>
      <stop offset="100%" stop-color="var(--background)" stop-opacity="0.14"/>
    </linearGradient>
    <filter id="svgffe4f1b6-text-glow" x="-20%" y="-20%" width="140%" height="140%">
      <feDropShadow dx="0" dy="0" stdDeviation="2" flood-color="#000000" flood-opacity="0.4"/>
    </filter>
    <marker id="svgffe4f1b6-arrowhead" markerWidth="10" markerHeight="7" refX="9" refY="3.5" orient="auto" markerUnits="strokeWidth">
      <polygon points="0 0, 10 3.5, 0 7" fill="var(--muted-text)" opacity="0.6"/>
    </marker>
  </defs>
  <rect width="100%" height="100%" fill="var(--background)" id="CANVAS_BG"/>
  <rect width="100%" height="100%" fill="url(#svgffe4f1b6-napkin-hatch)"/>
  <rect id="UNIVERSAL_EDGE_VIGNETTE" width="100%" height="100%" fill="url(#svgffe4f1b6-universal-edge-vignette)" opacity="0.62"/>
  <text id="TITLE" x="960.0" y="59" text-anchor="middle" font-weight="800" font-size="56" fill="#0f172a" style="font-size: 60px; font-family: Inter, Segoe UI, Kalam, Roboto, Helvetica, Arial, sans-serif; font-weight: 700; letter-spacing:-1.2px;" data-final-font-size="60">
    <tspan x="960.0" dy="68.00px">The Focal-Person Pattern Dynamics</tspan>
  </text>
  <rect id="TITLE_FRAME" x="134" y="39" width="1652" height="103" fill="none"/>
  <g id="DIAGRAM_SCALER" transform="translate(50, 20) scale(0.95)">
    <!-- Parent Node (ITEM_1) - Top Box -->
    <g transform="translate(960, 235)">
      <rect id="ITEM_1_BG" x="-310" y="-90" width="620" height="180" rx="18" fill="var(--panel)" stroke="var(--accent-1)" stroke-width="6" filter="url(#svgffe4f1b6-shadow)"/>
      <circle id="ITEM_1_PAD" cx="-140" cy="0" r="52" fill="var(--icon-pad-bg)" stroke="var(--primary-text)" opacity="0.9" fill-opacity="0.9" stroke-width="2"/>
      <circle id="ITEM_1_PAD_INNER" cx="-140" cy="0" r="40.56" fill="var(--accent-1)" fill-opacity="0.22"/>
      <circle cx="-140" cy="0" r="42" fill="none" stroke="var(--accent-1)" stroke-width="3" stroke-dasharray="6 4"/>
      <g id="ITEM_1_ICON" transform="translate(-180, -40)" data-icon-size="80" stroke-dasharray="6 4">
        <g transform="translate(-6.716428571428571,-6.354285714285717) scale(2.8971428571428572)">
          <path d="M16.0899 3.59C14.2011 3.59 12.6699 5.12118 12.6699 7.01C12.6699 8.89881 14.2011 10.43 16.0899 10.43C17.9787 10.43 19.5099 8.89881 19.5099 7.01C19.5099 5.12118 17.9787 3.59 16.0899 3.59ZM11.1699 7.01C11.1699 4.29276 13.3727 2.09 16.0899 2.09C18.8072 2.09 21.0099 4.29276 21.0099 7.01C21.0099 9.72724 18.8072 11.93 16.0899 11.93C13.3727 11.93 11.1699 9.72724 11.1699 7.01Z" fill="#CA0B4A"/>
          <path d="M23.35 30H8.74C6.67 30 5 28.32 5 26.26V16.11C5 10.01 9.95 5.06 16.05 5.06C22.15 5.06 27.1 10.01 27.1 16.11V26.26C27.09 28.32 25.42 30 23.35 30Z" fill="#F8312F"/>
          <path d="M8 25.57C8 20.79 11.5792 16.92 16 16.92C20.4208 16.92 24 20.79 24 25.57V24.7C24 19.92 20.4208 16.05 16 16.05C11.5792 16.05 8 19.92 8 24.7V25.57Z" fill="#CA0B4A"/>
          <path d="M8.36589 11.5783C8.25899 11.8323 7.96651 11.952 7.71209 11.8456C7.45733 11.7391 7.3372 11.4462 7.44376 11.1914L7.44426 11.1902L7.44495 11.1886L7.44691 11.184L7.45317 11.1695C7.45839 11.1576 7.46571 11.1412 7.4752 11.1206C7.49419 11.0794 7.52188 11.0212 7.5588 10.9486C7.6326 10.8034 7.74349 10.5999 7.89574 10.3576C8.19988 9.87356 8.6714 9.23083 9.34518 8.58817C10.6993 7.29658 12.8617 6.01562 16.0775 6.01562C19.2945 6.01562 21.4135 7.29769 22.7239 8.59461C23.3753 9.23928 23.8237 9.88397 24.1103 10.3694C24.2537 10.6125 24.3572 10.8166 24.4258 10.9624C24.4601 11.0353 24.4857 11.0937 24.5032 11.1352C24.5119 11.1559 24.5187 11.1724 24.5235 11.1844L24.5293 11.199L24.5311 11.2037L24.5317 11.2054L24.5322 11.2066C24.6303 11.4648 24.5007 11.7535 24.2426 11.8517C23.9848 11.9497 23.6964 11.8205 23.5979 11.563L23.5975 11.5621L23.5952 11.5563L23.5876 11.5376L23.5819 11.5242C23.5693 11.4943 23.5492 11.4481 23.5208 11.3879C23.4642 11.2674 23.3751 11.0912 23.2491 10.8778C22.9968 10.4504 22.5989 9.87786 22.0204 9.30536C20.8712 8.16792 18.9965 7.01562 16.0775 7.01562C13.1574 7.01562 11.2335 8.16903 10.0354 9.31179C9.43304 9.88631 9.01193 10.4608 8.74247 10.8896C8.60792 11.1038 8.51178 11.2806 8.45024 11.4017C8.41949 11.4622 8.39743 11.5087 8.38359 11.5387C8.37667 11.5538 8.37181 11.5647 8.36895 11.5712L8.3663 11.5773L8.36589 11.5783Z" fill="#FCD53F"/>
          <path d="M17.85 12.09H14.25C13.838 12.09 13.4751 11.8858 13.2568 11.5727C13.1201 11.3767 13.04 11.138 13.04 10.88V10.28C13.04 9.61001 13.58 9.07001 14.25 9.07001H17.84C18.51 9.07001 19.05 9.61001 19.05 10.28V10.88C19.0539 11.1355 18.9777 11.372 18.8449 11.5669C18.6294 11.8833 18.2646 12.09 17.85 12.09Z" fill="#FCD53F"/>
          <path d="M8.03853 23.59C8.42853 23.59 8.75853 23.88 8.80853 24.26L9.07853 26.12C9.13853 26.58 8.77853 27 8.30853 27H7.77853C7.30853 27 6.93853 26.59 7.00853 26.12L7.26853 24.26C7.32853 23.87 7.64853 23.59 8.03853 23.59ZM7.60853 24.36C7.60853 24.6 7.79853 24.79 8.03853 24.79C8.27853 24.79 8.46853 24.6 8.46853 24.36C8.46853 24.12 8.27853 23.93 8.03853 23.93C7.79853 23.93 7.60853 24.12 7.60853 24.36Z" fill="#FCD53F"/>
        </g>
      </g>
      <rect id="ITEM_1_TEXT_BG" x="-88.0" y="-78.0" width="416.0" height="170.0" rx="22" fill="var(--panel)" fill-opacity="0.94" stroke="none" stroke-opacity="0" stroke-width="1.5"/>
      <text id="ITEM_1_HEAD" x="120.0" y="-45.0" text-anchor="middle" font-weight="bold" font-size="26" fill="var(--primary-text)" data-bg-id="ITEM_1_BG" fill-opacity="1.0" style="font-size: 30px; font-family: Inter, Segoe UI, Kalam, Roboto, Helvetica, Arial, sans-serif; font-weight: 700; letter-spacing:-0.4px;" data-final-font-size="30">
        <tspan x="120.0" dy="30.75px">Age Profile</tspan>
      </text>
      <rect id="ITEM_1_HEAD_FRAME" x="-70" y="-45" width="380" height="45" fill="none"/>
      <text id="ITEM_1_BODY" x="125.0" y="0.0" text-anchor="middle" font-size="20" fill="var(--primary-text)" opacity="0.9" data-bg-id="ITEM_1_TEXT_BG" style="font-size: 26px; font-family: Inter, Segoe UI, Kalam, Roboto, Helvetica, Arial, sans-serif; font-weight: 400;" data-final-font-size="26">
        <tspan x="125.0" dy="22.06px">Disturbances cluster around</tspan>
        <tspan x="125.0" dy="29.90px">children or adolescents</tspan>
        <tspan x="125.0" dy="29.90px">in the home</tspan>
      </text>
      <rect id="ITEM_1_BODY_FRAME" x="-55" y="0" width="360" height="96" fill="none"/>
    </g>
    <!-- Vertical connector from top box -->
    <path d="M 960 325 L 960 395" stroke="var(--muted-text)" stroke-width="6"/>
    <!-- Horizontal connector bar -->
    <path d="M 270 395 L 1650 395" stroke="var(--muted-text)" stroke-width="6"/>
    <!-- Vertical connectors to children - evenly spaced -->
    <line x1="270" y1="395" x2="270" y2="470" stroke="var(--muted-text)" stroke-width="6"/>
    <line x1="730" y1="395" x2="730" y2="470" stroke="var(--muted-text)" stroke-width="6"/>
    <line x1="1190" y1="395" x2="1190" y2="470" stroke="var(--muted-text)" stroke-width="6"/>
    <line x1="1650" y1="395" x2="1650" y2="470" stroke="var(--muted-text)" stroke-width="6"/>
    <!-- Child Node 1 (ITEM_2) -->
    <g transform="translate(270, 532)">
      <circle id="ITEM_2_PAD" cx="0" cy="0" r="62" fill="var(--icon-pad-bg)" stroke="var(--primary-text)" opacity="0.9" fill-opacity="0.9" stroke-width="2"/>
      <circle id="ITEM_2_PAD_INNER" cx="0" cy="0" r="48.36" fill="var(--accent-2)" fill-opacity="0.22"/>
      <circle cx="0" cy="0" r="50" fill="none" stroke="var(--accent-2)" stroke-width="3" stroke-dasharray="6 4" filter="url(#svgffe4f1b6-shadow)"/>
      <g id="ITEM_2_ICON" transform="translate(-38, -38)" data-icon-size="76" stroke-dasharray="6 4">
        <g transform="translate(-17.268571428571427,-15.541428571428568) scale(3.454285714285714)">
          <path fill-rule="evenodd" clip-rule="evenodd" d="M10 8.83354V3.52275C10 3.23233 9.75879 3 9.46734 3H6.54271C6.24121 3 6 3.23233 6 3.52275V12.1687L5 13.0025V29.0025H27V14.0025L16.07 3.77246L10 8.83354Z" fill="#F3C07B"/>
          <path d="M15.92 27.0025H8.08C8.04 27.0025 8 26.9625 8 26.9225V16.3925C8 15.6425 8.61 15.0325 9.36 15.0325H14.65C15.4 15.0325 16.01 15.6425 16.01 16.3925V26.9225C16 26.9625 15.96 27.0025 15.92 27.0025Z" fill="#8C5543"/>
          <path d="M14.5 21.0024C14.7761 21.0024 15 20.7786 15 20.5024C15 20.2263 14.7761 20.0024 14.5 20.0024C14.2239 20.0024 14 20.2263 14 20.5024C14 20.7786 14.2239 21.0024 14.5 21.0024Z" fill="#402A32"/>
          <path d="M15.96 28.0024H8C7.45 28.0024 7 27.5524 7 27.0024C7 26.4524 7.45 26.0024 8 26.0024H15.96C16.51 26.0024 16.96 26.4524 16.96 27.0024C16.96 27.5524 16.51 28.0024 15.96 28.0024Z" fill="#D3D3D3"/>
          <path d="M30 29.0024H2V28.9124C2 27.8524 2.85 27.0024 3.91 27.0024H28.09C29.14 27.0024 30 27.8524 30 28.9124V29.0024Z" fill="#00F397"/>
          <path d="M16.88 2.3525L29.64 14.9225C30.12 15.3925 30.12 16.1525 29.64 16.6125C29.17 17.0825 28.4 17.0825 27.92 16.6125L16.02 4.8925L4.08 16.6525C3.61 17.1225 2.84 17.1225 2.36 16.6525C1.88 16.1825 1.88 15.4225 2.36 14.9525L15.16 2.3525C15.63 1.8825 16.4 1.8825 16.88 2.3525Z" fill="#F8312F"/>
          <path d="M23.14 21.0024H18.86C18.38 21.0024 18 20.6224 18 20.1424V15.8624C18 15.3924 18.38 15.0024 18.86 15.0024H23.14C23.61 15.0024 24 15.3824 24 15.8624V20.1424C24 20.6224 23.62 21.0024 23.14 21.0024Z" fill="#83CBFF"/>
        </g>
      </g>
      <g transform="translate(0, 90)">
        <rect x="-200" y="-15" width="400" height="228" rx="18" fill="var(--accent-2)" fill-opacity="1.0" stroke="var(--accent-2)" id="ITEM_2_BG" stroke-width="3"/>
        <rect id="ITEM_2_TEXT_BG" x="-208.0" y="-9.0" width="416.0" height="228.0" rx="22" fill="var(--panel)" fill-opacity="0.94" stroke="none" stroke-opacity="0" stroke-width="1.5"/>
        <text id="ITEM_2_HEAD" text-anchor="middle" font-weight="bold" font-size="24" fill="var(--primary-text)" x="0.0" y="6.0" data-bg-id="ITEM_2_BG" fill-opacity="1.0" style="font-size: 30px; font-family: Inter, Segoe UI, Kalam, Roboto, Helvetica, Arial, sans-serif; font-weight: 700; letter-spacing:-0.4px;" data-final-font-size="30">
          <tspan x="0.0" dy="29.25px">Emotional Strain</tspan>
        </text>
        <rect id="ITEM_2_HEAD_FRAME" x="-190" y="6" width="380" height="42" fill="none"/>
        <text id="ITEM_2_BODY" text-anchor="middle" font-size="18" fill="var(--primary-text)" x="0.0" y="52.0" data-bg-id="ITEM_2_TEXT_BG" opacity="0.9" style="font-size: 26px; font-family: Inter, Segoe UI, Kalam, Roboto, Helvetica, Arial, sans-serif; font-weight: 400;" data-final-font-size="26">
          <tspan x="0.0" dy="32.46px">Outbreaks correlate with</tspan>
          <tspan x="0.0" dy="29.90px">periods of anxiety</tspan>
          <tspan x="0.0" dy="29.90px">or family conflict</tspan>
        </text>
        <rect id="ITEM_2_BODY_FRAME" x="-190" y="52" width="380" height="148" fill="none"/>
      </g>
    </g>
    <!-- Child Node 2 (ITEM_3) -->
    <g transform="translate(730, 532)">
      <circle id="ITEM_3_PAD" cx="0" cy="0" r="62" fill="var(--icon-pad-bg)" stroke="var(--primary-text)" opacity="0.9" fill-opacity="0.9" stroke-width="2"/>
      <circle id="ITEM_3_PAD_INNER" cx="0" cy="0" r="48.36" fill="var(--accent-3)" fill-opacity="0.22"/>
      <circle cx="0" cy="0" r="50" fill="none" stroke="var(--accent-3)" stroke-width="3" stroke-dasharray="6 4" filter="url(#svgffe4f1b6-shadow)"/>
      <g id="ITEM_3_ICON" transform="translate(-38, -38)" data-icon-size="76" stroke-dasharray="6 4">
        <g transform="translate(-13.584,-14.389999999999993) scale(3.2239999999999998)">
          <path d="M30.893 15C30.044 7.683 23.834 2 16.289 2H15.057C7.293 2 1 8.293 1 16.057C1 18.787 3.213 21 5.943 21H8.025C8.278 23.803 10.631 26 13.5 26H24C27.17 26 29.845 23.891 30.706 21C30.895 20.366 31 19.695 31 19V16.711C31 16.131 30.958 15.562 30.893 15Z" fill="#FF6DC6"/>
          <path d="M25 25.982V29.586C25 30.254 24.192 30.589 23.72 30.116L19.604 26L25 25.982Z" fill="#F70A8D"/>
          <path d="M10.178 7.536C10.285 7.503 10.367 7.407 10.377 7.287C10.45 6.417 10.508 5.544 10.5 4.659C10.221 5.413 10 6.177 9.79203 6.943C7.93903 7.238 6.17903 8.228 4.94903 9.671C3.66703 11.148 2.93203 13.106 3.05503 15C3.58403 13.192 4.45103 11.598 5.66503 10.315C6.87703 9.036 8.40603 8.087 10.122 7.553L10.178 7.536ZM19.682 5.159C19.412 4.594 18.935 4.134 18.372 3.822C17.81 3.502 17.152 3.349 16.5 3.341C15.848 3.351 15.191 3.504 14.629 3.824C14.067 4.135 13.589 4.595 13.318 5.159C14.427 4.616 15.441 4.334 16.5 4.341C17.559 4.336 18.57 4.617 19.682 5.159ZM11.055 15.098C10.75 15.192 10.459 15.325 10.176 15.477C10.166 15.385 10.154 15.293 10.133 15.203C10.035 14.761 9.79203 14.355 9.47503 14.026C8.83403 13.382 7.79803 13.091 7.00003 13.5C7.77503 13.902 8.30103 14.259 8.76803 14.732C9.08703 15.048 9.35203 15.396 9.61503 15.823C9.36503 16 9.12303 16.19 8.90403 16.404C8.30903 17.01 7.84303 17.749 7.59603 18.554C7.34303 19.354 7.29203 20.213 7.50003 21C7.90203 19.438 8.58103 18.134 9.61003 17.11C10.631 16.079 11.938 15.4 13.5 15C12.713 14.794 11.854 14.845 11.055 15.098ZM23.042 19.538C22.622 19.615 22.063 19.536 21.511 19.528L19.872 19.5C19.141 19.505 18.409 19.525 17.678 19.555C18.185 19.002 18.393 18.142 18 17.5C17.597 18.145 17.295 18.539 16.914 18.914C16.651 19.179 16.374 19.408 16.013 19.66C15.115 19.735 14.217 19.837 13.319 20C15.504 20.396 17.688 20.485 19.873 20.5L20.229 20.494C20.488 20.687 20.707 20.875 20.915 21.086C21.294 21.462 21.596 21.856 22.001 22.5C22.21 22.171 22.249 21.77 22.171 21.394C22.106 21.047 21.921 20.733 21.686 20.465L22.332 20.437C22.594 20.435 22.956 20.396 23.243 20.291C24.474 19.921 25.238 18.605 25.002 17.501C24.792 18.598 23.957 19.385 23.042 19.538ZM29.365 16.863C29.094 15.997 28.591 15.204 27.949 14.551C27.296 13.91 26.502 13.407 25.636 13.136C25.105 12.964 24.55 12.886 24.001 12.891C24.616 12.249 25.101 11.478 25.364 10.636C25.643 9.776 25.706 8.853 25.5 8C25.1 9.693 24.367 11.129 23.243 12.243C22.127 13.366 20.693 14.097 19 14.5C19.853 14.708 20.777 14.645 21.637 14.365C22.384 14.131 23.071 13.717 23.667 13.198C25.068 13.623 26.282 14.286 27.244 15.256C28.367 16.372 29.098 17.806 29.501 19.499C29.708 18.647 29.645 17.723 29.365 16.863Z" fill="#F70A8D"/>
        </g>
      </g>
      <g transform="translate(0, 90)">
        <rect x="-200" y="-15" width="400" height="228" rx="18" fill="var(--accent-3)" fill-opacity="1.0" stroke="var(--accent-3)" id="ITEM_3_BG" stroke-width="3"/>
        <rect id="ITEM_3_TEXT_BG" x="-208.0" y="-9.0" width="416.0" height="228.0" rx="22" fill="var(--panel)" fill-opacity="0.94" stroke="none" stroke-opacity="0" stroke-width="1.5"/>
        <text id="ITEM_3_HEAD" text-anchor="middle" font-weight="bold" font-size="24" fill="var(--primary-text)" x="0.0" y="6.0" data-bg-id="ITEM_3_BG" fill-opacity="1.0" style="font-size: 30px; font-family: Inter, Segoe UI, Kalam, Roboto, Helvetica, Arial, sans-serif; font-weight: 700; letter-spacing:-0.4px;" data-final-font-size="30">
          <tspan x="0.0" dy="29.25px">RSPK Theory</tspan>
        </text>
        <rect id="ITEM_3_HEAD_FRAME" x="-190" y="6" width="380" height="42" fill="none"/>
        <text id="ITEM_3_BODY" text-anchor="middle" font-size="18" fill="var(--primary-text)" x="0.0" y="52.0" data-bg-id="ITEM_3_TEXT_BG" opacity="0.9" style="font-size: 26px; font-family: Inter, Segoe UI, Kalam, Roboto, Helvetica, Arial, sans-serif; font-weight: 400;" data-final-font-size="26">
          <tspan x="0.0" dy="32.46px">Unconscious psychokinesis may</tspan>
          <tspan x="0.0" dy="29.90px">generate the reported physical</tspan>
          <tspan x="0.0" dy="29.90px">movements</tspan>
        </text>
        <rect id="ITEM_3_BODY_FRAME" x="-190" y="52" width="380" height="148" fill="none"/>
      </g>
    </g>
    <!-- Child Node 3 (ITEM_4) -->
    <g transform="translate(1190, 532)">
      <circle id="ITEM_4_PAD" cx="0" cy="0" r="62" fill="var(--icon-pad-bg)" stroke="var(--primary-text)" opacity="0.9" fill-opacity="0.9" stroke-width="2"/>
      <circle id="ITEM_4_PAD_INNER" cx="0" cy="0" r="48.36" fill="var(--accent-4)" fill-opacity="0.22"/>
      <circle cx="0" cy="0" r="50" fill="none" stroke="var(--accent-4)" stroke-width="3" stroke-dasharray="6 4" filter="url(#svgffe4f1b6-shadow)"/>
      <g id="ITEM_4_ICON" transform="translate(-38, -38)" data-icon-size="76" stroke-dasharray="6 4">
        <g transform="translate(-17.268571428571427,-18.995714285714286) scale(3.454285714285714)">
          <path d="M22.5247 17.94C26.6502 17.94 29.9947 14.5956 29.9947 10.47C29.9947 6.34443 26.6502 3 22.5247 3C18.3991 3 15.0547 6.34443 15.0547 10.47C15.0547 14.5956 18.3991 17.94 22.5247 17.94Z" fill="#533566"/>
          <path d="M2.64445 29.2101C1.81445 28.3301 1.78446 26.9601 2.56446 26.0401L15.1045 11.3401L21.2145 17.8201L5.80445 29.4801C4.84445 30.2101 3.47445 30.0901 2.64445 29.2101Z" fill="#9B9B9B"/>
          <path d="M18.9958 4.00515L28.9358 14.5552C29.5958 15.2552 29.5658 16.3552 28.8658 17.0051C28.1658 17.6651 27.0758 17.6352 26.4158 16.9352L16.4758 6.38515C15.8158 5.68515 15.8458 4.59517 16.5458 3.93517C17.2458 3.27517 18.3358 3.30515 18.9958 4.00515ZM15.4146 18.5302C15.4146 19.342 14.7565 20.0002 13.9446 20.0002C13.1328 20.0002 12.4746 19.342 12.4746 18.5302C12.4746 17.7183 13.1328 17.0602 13.9446 17.0602C14.7565 17.0602 15.4146 17.7183 15.4146 18.5302Z" fill="#BEBEBE"/>
        </g>
      </g>
      <g transform="translate(0, 90)">
        <rect x="-200" y="-15" width="400" height="228" rx="18" fill="var(--accent-4)" fill-opacity="1.0" stroke="var(--accent-4)" id="ITEM_4_BG" stroke-width="3"/>
        <rect id="ITEM_4_TEXT_BG" x="-208.0" y="-9.0" width="416.0" height="228.0" rx="22" fill="var(--panel)" fill-opacity="0.94" stroke="none" stroke-opacity="0" stroke-width="1.5"/>
        <text id="ITEM_4_HEAD" text-anchor="middle" font-weight="bold" font-size="24" fill="var(--primary-text)" x="0.0" y="6.0" data-bg-id="ITEM_4_BG" fill-opacity="1.0" style="font-size: 30px; font-family: Inter, Segoe UI, Kalam, Roboto, Helvetica, Arial, sans-serif; font-weight: 700; letter-spacing:-0.4px;" data-final-font-size="30">
          <tspan x="0.0" dy="29.25px">Social Incentives</tspan>
        </text>
        <rect id="ITEM_4_HEAD_FRAME" x="-190" y="6" width="380" height="42" fill="none"/>
        <text id="ITEM_4_BODY" text-anchor="middle" font-size="18" fill="var(--primary-text)" x="0.0" y="52.0" data-bg-id="ITEM_4_TEXT_BG" opacity="0.9" style="font-size: 26px; font-family: Inter, Segoe UI, Kalam, Roboto, Helvetica, Arial, sans-serif; font-weight: 400;" data-final-font-size="26">
          <tspan x="0.0" dy="32.46px">Extraordinary mystery status</tspan>
          <tspan x="0.0" dy="29.90px">creates incentives for</tspan>
          <tspan x="0.0" dy="29.90px">attention-seeking behavior</tspan>
        </text>
        <rect id="ITEM_4_BODY_FRAME" x="-190" y="52" width="380" height="148" fill="none"/>
      </g>
    </g>
    <!-- Child Node 4 (ITEM_5) -->
    <g transform="translate(1650, 532)">
      <circle id="ITEM_5_PAD" cx="0" cy="0" r="62" fill="var(--icon-pad-bg)" stroke="var(--primary-text)" opacity="0.9" fill-opacity="0.9" stroke-width="2"/>
      <circle id="ITEM_5_PAD_INNER" cx="0" cy="0" r="48.36" fill="var(--accent-5)" fill-opacity="0.22"/>
      <circle cx="0" cy="0" r="50" fill="none" stroke="var(--accent-5)" stroke-width="3" stroke-dasharray="6 4" filter="url(#svgffe4f1b6-shadow)"/>
      <g id="ITEM_5_ICON" transform="translate(-38, -38)" data-icon-size="76" stroke-dasharray="6 4">
        <g transform="translate(-19.315555555555555,-19.315555555555555) scale(4.776296296296296)" vector-effect="non-scaling-stroke" stroke-width="2.62" stroke-linecap="round" stroke-linejoin="round" stroke-opacity="1.0">
          <path d="M12 3v18" vector-effect="non-scaling-stroke" fill="none" stroke="#f1f5f9"/>
          <rect width="18" height="18" x="3" y="3" rx="2" vector-effect="non-scaling-stroke" fill="none" stroke="#f1f5f9"/>
          <path d="M3 9h18" vector-effect="non-scaling-stroke" fill="none" stroke="#f1f5f9"/>
          <path d="M3 15h18" vector-effect="non-scaling-stroke" fill="none" stroke="#f1f5f9"/>
        </g>
      </g>
      <g transform="translate(0, 90)">
        <rect x="-200" y="-15" width="400" height="228" rx="18" fill="var(--accent-5)" fill-opacity="1.0" stroke="var(--accent-5)" id="ITEM_5_BG" stroke-width="3"/>
        <rect id="ITEM_5_TEXT_BG" x="-208.0" y="-9.0" width="416.0" height="228.0" rx="22" fill="var(--panel)" fill-opacity="0.94" stroke="none" stroke-opacity="0" stroke-width="1.5"/>
        <text id="ITEM_5_HEAD" text-anchor="middle" font-weight="bold" font-size="24" fill="var(--inverse-text)" x="0.0" y="6.0" data-bg-id="ITEM_5_BG" fill-opacity="1.0" style="font-size: 30px; font-family: Inter, Segoe UI, Kalam, Roboto, Helvetica, Arial, sans-serif; font-weight: 700; letter-spacing:-0.4px;" data-final-font-size="30">
          <tspan x="0.0" dy="29.25px">Household Stress</tspan>
        </text>
        <rect id="ITEM_5_HEAD_FRAME" x="-190" y="6" width="380" height="42" fill="none"/>
        <text id="ITEM_5_BODY" text-anchor="middle" font-size="18" fill="var(--primary-text)" x="0.0" y="52.0" data-bg-id="ITEM_5_TEXT_BG" opacity="0.9" style="font-size: 26px; font-family: Inter, Segoe UI, Kalam, Roboto, Helvetica, Arial, sans-serif; font-weight: 400;" data-final-font-size="26">
          <tspan x="0.0" dy="32.46px">Instability and emotional</tspan>
          <tspan x="0.0" dy="29.90px">strain are common</tspan>
          <tspan x="0.0" dy="29.90px">in major reports</tspan>
        </text>
        <rect id="ITEM_5_BODY_FRAME" x="-190" y="52" width="380" height="148" fill="none"/>
      </g>
    </g>
  </g>
</svg>
