<?xml version='1.0' encoding='utf-8'?>
<svg xmlns="http://www.w3.org/2000/svg" width="1920" height="1080" viewBox="0 0 1920 1080" data-theme="dark">
  <style>
        @font-face {
            font-family: 'Inter';
            src: url('assets/fonts/Inter-Regular.ttf') format('truetype');
            font-weight: 400;
            font-style: normal;
            font-display: swap;
        }
        @font-face {
            font-family: 'Inter';
            src: url('assets/fonts/Inter-Bold.ttf') format('truetype');
            font-weight: 600;
            font-style: normal;
            font-display: swap;
        }
        @font-face {
            font-family: 'Inter';
            src: url('assets/fonts/Inter-Bold.ttf') format('truetype');
            font-weight: 800;
            font-style: normal;
            font-display: swap;
        }
        
:root {
    --background: #0f172a;
    --panel: #1e293b;
    --primary-text: #f1f5f9;
    --muted-text: #94a3b8;
    --inverse-text: #0f172a;
    --border: #334155;
    --shadow-color: #000000;
    --icon-pad-bg: #1e293b;
    --art-glow: #7dd3fc;
    --art-glow-opacity: 0.18;
    --art-sheen: #ffffff;
    --art-sheen-opacity: 0.18;
    --art-shadow: #000000;
    --art-shadow-opacity: 0.28;
    --art-muted-line: #64748b;
    --art-panel-tint: #1e293b;
    --font-family: 'Inter', 'Segoe UI', 'Kalam', Roboto, Helvetica, Arial, sans-serif;
    --radius-xl: 16px;
    --font-family-headline: 'Inter', 'Segoe UI', 'Kalam', Roboto, Helvetica, Arial, sans-serif;
    --font-family-body: 'Inter', 'Segoe UI', 'Kalam', Roboto, Helvetica, Arial, sans-serif;
    --font-heading: 'Inter', 'Segoe UI', 'Kalam', Roboto, Helvetica, Arial, sans-serif;
    --font-body: 'Inter', 'Segoe UI', 'Kalam', Roboto, Helvetica, Arial, sans-serif;
    --font-size-h1: 56px;
    --font-size-h2: 40px;
    --font-size-h3: 28px;
    --font-size-body: 24px;
    --font-size-caption: 18px;
    --secondary-text: var(--muted-text);
    --panel-border: var(--border);
    --font-weight-normal: 400;
    --font-weight-medium: 500;
    --font-weight-semibold: 600;
    --font-weight-bold: 700;
    --spacing-gutter-pct: 0.07;
    --spacing-top-pct: 0.15;
    --spacing-bottom-pct: 0.07;
    --spacing-title-y-pct: 0.055;
    --accent-1: #60a5fa;
    --accent-2: #4ade80;
    --accent-3: #f97316;
    --accent-4: #a78bfa;
    --accent-5: #38bdf8;
    --accent-6: #94a3b8;
}
:root[data-theme="dark"] {
    --background: #0f172a;
    --panel: #1e293b;
    --primary-text: #f1f5f9;
    --muted-text: #94a3b8;
    --inverse-text: #0f172a;
    --border: #334155;
    --shadow-color: #000000;
    --icon-pad-bg: #1e293b;
    --art-glow: #7dd3fc;
    --art-glow-opacity: 0.18;
    --art-sheen: #ffffff;
    --art-sheen-opacity: 0.18;
    --art-shadow: #000000;
    --art-shadow-opacity: 0.28;
    --art-muted-line: #64748b;
    --art-panel-tint: #1e293b;
    --accent-1: #60a5fa;
    --accent-2: #4ade80;
    --accent-3: #f97316;
    --accent-4: #a78bfa;
    --accent-5: #38bdf8;
    --accent-6: #94a3b8;
}
:root[data-theme="light"] {
    --background: #f8fafc;
    --panel: #ffffff;
    --primary-text: #0f172a;
    --muted-text: #64748b;
    --inverse-text: #ffffff;
    --border: #e2e8f0;
    --shadow-color: #000000;
    --icon-pad-bg: #1e293b;
    --art-glow: #0891b2;
    --art-glow-opacity: 0.10;
    --art-sheen: #ffffff;
    --art-sheen-opacity: 0.34;
    --art-shadow: #0f172a;
    --art-shadow-opacity: 0.14;
    --art-muted-line: #94a3b8;
    --art-panel-tint: #f1f5f9;
    --accent-1: #2563eb;
    --accent-2: #16a34a;
    --accent-3: #ea580c;
    --accent-4: #7c3aed;
    --accent-5: #0284c7;
    --accent-6: #475569;
}</style>
  <rect x="0" y="0" width="1.92E+3" height="1.08E+3" fill="#252a34" stroke="none" id="programmatic_background"/>
  <line id="HEADER_DECOR" x1="960.0" x2="1080.0" y1="70.0" y2="70.0" stroke="var(--accent-1)" stroke-width="6" stroke-linecap="round"/>
  <defs>
    <pattern id="svge68ab7b6-napkin-hatch" patternUnits="userSpaceOnUse" width="12" height="12">
      <path d="M -3 12 L 12 -3 M 0 15 L 15 0" fill="none" stroke="var(--primary-text)" stroke-width="1" stroke-opacity="0.05"/>
    </pattern>
    <radialGradient id="svge68ab7b6-universal-edge-vignette" cx="50%" cy="50%" r="72%">
      <stop offset="0%" stop-color="var(--background)" stop-opacity="0"/>
      <stop offset="72%" stop-color="var(--background)" stop-opacity="0.12"/>
      <stop offset="100%" stop-color="var(--primary-text)" stop-opacity="0.08"/>
    </radialGradient>
    <linearGradient id="svge68ab7b6-universal-surface-sheen" x1="0%" y1="0%" x2="100%" y2="100%">
      <stop offset="0%" stop-color="var(--art-sheen)" stop-opacity="var(--art-sheen-opacity)"/>
      <stop offset="46%" stop-color="var(--art-sheen)" stop-opacity="0.035"/>
      <stop offset="100%" stop-color="var(--art-panel-tint)" stop-opacity="0.14"/>
    </linearGradient>
    <radialGradient id="svge68ab7b6-universal-icon-aura" cx="50%" cy="42%" r="64%">
      <stop offset="0%" stop-color="var(--art-glow)" stop-opacity="var(--art-glow-opacity)"/>
      <stop offset="100%" stop-color="var(--background)" stop-opacity="0"/>
    </radialGradient>
    <radialGradient id="svge68ab7b6-satellite-map-art-glow" cx="50%" cy="52%" r="68%">
      <stop offset="0%" stop-color="var(--inverse-text)" stop-opacity="0.14"/>
      <stop offset="100%" stop-color="var(--background)" stop-opacity="0"/>
    </radialGradient>
    <linearGradient id="svge68ab7b6-satellite-map-art-sheen" x1="16%" y1="0%" x2="86%" y2="100%">
      <stop offset="0%" stop-color="var(--inverse-text)" stop-opacity="0.22"/>
      <stop offset="52%" stop-color="var(--inverse-text)" stop-opacity="0.035"/>
      <stop offset="100%" stop-color="var(--background)" stop-opacity="0.14"/>
    </linearGradient>
    <filter id="svge68ab7b6-text-glow" x="-20%" y="-20%" width="140%" height="140%">
      <feDropShadow dx="0" dy="0" stdDeviation="2" flood-color="#000000" flood-opacity="0.4"/>
    </filter>
    <filter id="svge68ab7b6-shadow" x="-30%" y="-30%" width="160%" height="160%">
      <feDropShadow dx="0" dy="2" stdDeviation="3" flood-color="#000000" flood-opacity="0.08"/>
      <feDropShadow dx="0" dy="6" stdDeviation="10" flood-color="#000000" flood-opacity="0.12"/>
    </filter>
    <marker id="svge68ab7b6-arrowhead" markerWidth="10" markerHeight="7" refX="9" refY="3.5" orient="auto" markerUnits="strokeWidth">
      <polygon points="0 0, 10 3.5, 0 7" fill="var(--muted-text)" opacity="0.6"/>
    </marker>
  </defs>
  <rect width="100%" height="100%" fill="var(--background)" id="CANVAS_BG"/>
  <rect width="100%" height="100%" fill="url(#svge68ab7b6-napkin-hatch)"/>
  <ellipse id="SATELLITE-MAP_ART_GLOW" cx="960" cy="600" rx="650" ry="340" fill="url(#svge68ab7b6-satellite-map-art-glow)" opacity="0.84"/>
  <rect id="UNIVERSAL_EDGE_VIGNETTE" width="100%" height="100%" fill="url(#svge68ab7b6-universal-edge-vignette)" opacity="0.62"/>
  <text id="TITLE" x="960.0" y="59" font-size="42" font-weight="800" fill="#f1f5f9" style="font-size: 60px; font-family: Inter, Segoe UI, Kalam, Roboto, Helvetica, Arial, sans-serif; font-weight: 700; letter-spacing:-1.2px;" text-anchor="middle" data-final-font-size="60">
    <tspan x="960.0" dy="68.00px">Mechanisms of Sensed Presence</tspan>
  </text>
  <rect id="TITLE_FRAME" x="140" y="20" width="1640" height="60" fill="none"/>
  <!-- Pentagon layout - 5 nodes, all with text below -->
  <g id="DIAGRAM_MAIN">
    <!-- Connecting lines -->
    <path d="M 960 180 L 1360 420" stroke="var(--muted-text)" stroke-width="1.5" stroke-dasharray="6 4" opacity="0.5"/>
    <path d="M 960 500 L 960 180" stroke="var(--muted-text)" stroke-width="1.5" stroke-dasharray="6 4" opacity="0.5"/>
    <path d="M 1360 420 L 1200 780" stroke="var(--muted-text)" stroke-width="1.5" stroke-dasharray="6 4" opacity="0.5"/>
    <path d="M 960 500 L 1360 420" stroke="var(--muted-text)" stroke-width="1.5" stroke-dasharray="6 4" opacity="0.5"/>
    <path d="M 1200 780 L 720 780" stroke="var(--muted-text)" stroke-width="1.5" stroke-dasharray="6 4" opacity="0.5"/>
    <path d="M 960 500 L 1200 780" stroke="var(--muted-text)" stroke-width="1.5" stroke-dasharray="6 4" opacity="0.5"/>
    <path d="M 720 780 L 560 420" stroke="var(--muted-text)" stroke-width="1.5" stroke-dasharray="6 4" opacity="0.5"/>
    <path d="M 960 500 L 720 780" stroke="var(--muted-text)" stroke-width="1.5" stroke-dasharray="6 4" opacity="0.5"/>
    <path d="M 560 420 L 960 180" stroke="var(--muted-text)" stroke-width="1.5" stroke-dasharray="6 4" opacity="0.5"/>
    <path d="M 960 500 L 560 420" stroke="var(--muted-text)" stroke-width="1.5" stroke-dasharray="6 4" opacity="0.5"/>
    <!-- ITEM 1: Top center -->
    <g transform="translate(960, 180)">
      <circle id="ITEM_1_NODE" r="45" fill="var(--icon-pad-bg)" stroke="var(--accent-1)" stroke-width="3"/>
      <circle r="53" fill="none" stroke="var(--accent-1)" stroke-width="3" stroke-dasharray="6 4"/>
      <g id="ITEM_1_ICON" transform="translate(-30, -30)" data-icon-size="60" stroke-dasharray="6 4">
        <g transform="translate(-8.934453781512605,-7.45966386554622) scale(0.14747899159663866)" vector-effect="non-scaling-stroke" fill="var(--primary-text)" fill-opacity="1.0" stroke="none">
          <path fill="var(--primary-text)" d="M251.22 18.906c-1.887.027-3.794.16-5.69.438c-8.594 1.26-16.57 5.35-20.874 9.656l26.125 158.688l-17.593 5.656l-73.03-148c-5.852-.847-14.302.584-22.063 4.75c-8.054 4.322-14.445 11.026-17.22 17.375L190 210.374l-15.22 10.5L80.188 120.75c-5.81 1.17-13.124 5.42-19.062 12.094c-6.188 6.955-10.208 15.767-11.063 22.72l124.688 134.53l.125.125c16.778 17.487 19.067 46.66 15.03 83.06c-3.703 33.413-13.688 73.89-27.405 118.376h193.22c-22.947-62.09-27.75-117.916-25.564-162.5c-8.533 4.21-16.923 7.637-25.22 9.97c-18.127 5.096-36.56 4.635-52.748-5.157l9.687-16c11.263 6.812 23.092 7.355 38.03 3.155c14.94-4.2 32.307-13.533 51.345-25.594c35.937-22.766 77.844-54.91 125.53-78.186c-5.838-11.33-12.282-17.258-19.092-19.938c-8.276-3.257-18.583-2.462-31.063 1.875c-19.073 6.63-41.65 21.357-64.594 35.564l-14.25-9.28l1.033-4.626l2.312-10.125c-.033.005-.06.025-.094.03L387.19 46.25c-4.21-5.552-12.187-11.18-21.157-14.094c-8.56-2.783-17.125-2.776-22.78-.906l-31.72 143.688l-18.342-.563L269.03 23.062c-4.185-2.424-9.777-3.982-15.936-4.156a43 43 0 0 0-1.875 0z" vector-effect="non-scaling-stroke" stroke="none"/>
        </g>
      </g>
      <rect id="ITEM_1_TEXT_BG" x="-208" y="36" width="416" height="202" rx="22" fill="var(--panel)" fill-opacity="0.94" stroke="var(--accent-1)" stroke-width="2"/>
      <text id="ITEM_1_HEAD" x="0.0" y="50.0" text-anchor="middle" font-weight="bold" font-size="19" fill="var(--accent-1)" style="font-size: 29px; font-family: Inter, Segoe UI, Kalam, Roboto, Helvetica, Arial, sans-serif; font-weight: 700; letter-spacing:-0.4px;" data-bg-id="ITEM_1_TEXT_BG" dominant-baseline="text-before-edge" fill-opacity="1.0" stroke="none" data-final-font-size="29">
        <tspan x="0.0" dy="32.98px">Body Ownership</tspan>
      </text>
      <rect id="ITEM_1_HEAD_FRAME" x="-100" y="50" width="200" height="50" fill="none"/>
      <text id="ITEM_1_BODY" x="0.0" y="100.0" text-anchor="middle" font-size="15" fill="var(--primary-text)" style="font-size: 26px; font-family: Inter, Segoe UI, Kalam, Roboto, Helvetica, Arial, sans-serif; font-weight: 400;" data-bg-id="ITEM_1_TEXT_BG" dominant-baseline="text-before-edge" data-final-font-size="26">
        <tspan x="0.0" dy="32.84px">Brain maintains a coherent</tspan>
        <tspan x="0.0" dy="29.90px">sense of bodily ownership</tspan>
      </text>
      <rect id="ITEM_1_BODY_FRAME" x="-190" y="100" width="380" height="120" fill="none"/>
    </g>
    <!-- ITEM 2: Upper right -->
    <g transform="translate(1360, 420)">
      <circle id="ITEM_2_NODE" r="45" fill="var(--icon-pad-bg)" stroke="var(--accent-2)" stroke-width="3"/>
      <circle r="53" fill="none" stroke="var(--accent-2)" stroke-width="3" stroke-dasharray="6 4"/>
      <g id="ITEM_2_ICON" transform="translate(-30, -30)" data-icon-size="60" stroke-dasharray="6 4">
        <g transform="translate(-11.600000000000001,-11.600000000000001) scale(3.466666666666667)" vector-effect="non-scaling-stroke" stroke-width="2.43" stroke-linecap="round" stroke-linejoin="round" stroke-opacity="1.0">
          <rect width="18" height="18" x="3" y="3" rx="2" vector-effect="non-scaling-stroke" fill="none" stroke="var(--primary-text)"/>
          <path d="M11 9h4a2 2 0 0 0 2-2V3" vector-effect="non-scaling-stroke" fill="none" stroke="var(--primary-text)"/>
          <circle cx="9" cy="9" r="2" vector-effect="non-scaling-stroke" fill="none" stroke="var(--primary-text)"/>
          <path d="M7 21v-4a2 2 0 0 1 2-2h4" vector-effect="non-scaling-stroke" fill="none" stroke="var(--primary-text)"/>
          <circle cx="15" cy="15" r="2" vector-effect="non-scaling-stroke" fill="none" stroke="var(--primary-text)"/>
        </g>
      </g>
      <rect id="ITEM_2_TEXT_BG" x="-208" y="36" width="416" height="202" rx="22" fill="var(--panel)" fill-opacity="0.94" stroke="var(--accent-2)" stroke-width="2"/>
      <text id="ITEM_2_HEAD" x="0.0" y="50.0" text-anchor="middle" font-weight="bold" font-size="19" fill="var(--accent-2)" style="font-size: 21px; font-family: Inter, Segoe UI, Kalam, Roboto, Helvetica, Arial, sans-serif; font-weight: 700; letter-spacing:-0.4px;" data-bg-id="ITEM_2_TEXT_BG" dominant-baseline="text-before-edge" fill-opacity="1.0" stroke="none" data-final-font-size="21">
        <tspan x="0.0" dy="17.65px">Sensorimotor</tspan>
        <tspan x="0.0" dy="24.15px">Mismatch</tspan>
      </text>
      <rect id="ITEM_2_HEAD_FRAME" x="-100" y="50" width="200" height="50" fill="none"/>
      <text id="ITEM_2_BODY" x="0.0" y="100.0" text-anchor="middle" font-size="15" fill="var(--primary-text)" style="font-size: 26px; font-family: Inter, Segoe UI, Kalam, Roboto, Helvetica, Arial, sans-serif; font-weight: 400;" data-bg-id="ITEM_2_TEXT_BG" dominant-baseline="text-before-edge" data-final-font-size="26">
        <tspan x="0.0" dy="32.84px">Conflicting feedback triggers</tspan>
        <tspan x="0.0" dy="29.90px">the feeling of another person</tspan>
      </text>
      <rect id="ITEM_2_BODY_FRAME" x="-190" y="100" width="380" height="120" fill="none"/>
    </g>
    <!-- ITEM 3: Lower right -->
    <g transform="translate(1200, 780)">
      <circle id="ITEM_3_NODE" r="45" fill="var(--icon-pad-bg)" stroke="var(--accent-3)" stroke-width="3"/>
      <circle r="53" fill="none" stroke="var(--accent-3)" stroke-width="3" stroke-dasharray="6 4"/>
      <g id="ITEM_3_ICON" transform="translate(-30, -30)" data-icon-size="60" stroke-dasharray="6 4">
        <g transform="translate(-10.114285714285716,-10.114285714285716) scale(2.507142857142857)">
          <path d="M15.5 28C21.8513 28 27 22.8513 27 16.5C27 10.1487 21.8513 5 15.5 5C9.14873 5 4 10.1487 4 16.5C4 22.8513 9.14873 28 15.5 28Z" fill="#F4F4F4"/>
          <path d="M25.7663 7.73298C26.1431 7.9044 26.5609 8 27 8C28.65 8 30 6.65 30 5C30 3.35 28.65 2 27 2C25.35 2 24 3.35 24 5C24 5.43909 24.0956 5.85693 24.267 6.23373C21.9083 4.21752 18.8463 3 15.5 3C8.04416 3 2 9.04416 2 16.5C2 23.9558 8.04416 30 15.5 30C22.9558 30 29 23.9558 29 16.5C29 13.1537 27.7825 10.0917 25.7663 7.73298ZM25.39 4.99C25.39 4.1 26.11 3.38 27 3.38C27.88 3.38 28.61 4.1 28.61 4.99C28.61 5.88 27.89 6.6 27 6.6C26.11 6.6 25.39 5.88 25.39 4.99ZM26 16.5C26 22.299 21.299 27 15.5 27C9.70101 27 5 22.299 5 16.5C5 10.701 9.70101 6 15.5 6C21.299 6 26 10.701 26 16.5Z" fill="#F9C23C"/>
          <path d="M25.35 7.99994L23.99 6.63994L25.35 5.27994C25.72 4.90994 26.33 4.90994 26.71 5.27994C27.08 5.64994 27.08 6.25994 26.71 6.63994L25.35 7.99994Z" fill="#FFB02E"/>
          <path d="M13.2234 17.724L11.4099 20.21C11.2299 20.45 11.5299 20.75 11.7799 20.58L14.2735 18.7609L15.2099 24.7499C15.2599 25.0799 15.7399 25.0799 15.7899 24.7499L16.8663 17.8663L23.7499 16.7899C24.0799 16.7399 24.0799 16.2599 23.7499 16.2099L17.7609 15.2735L19.5799 12.78C19.7599 12.54 19.4599 12.24 19.2099 12.41L16.724 14.2234L15.7899 8.24994C15.7399 7.91994 15.2599 7.91994 15.2099 8.24994L14.1336 15.1336L7.24994 16.2099C6.91994 16.2599 6.91994 16.7399 7.24994 16.7899L13.2234 17.724Z" fill="#9B9B9B"/>
          <path d="M17.3382 15L20.9393 21.3271C21.1631 21.7255 20.7252 22.1629 20.3261 21.9394L14 18.3336L17.3382 15Z" fill="#9B9B9B"/>
          <path d="M13.6756 18L10.0605 11.672C9.83756 11.2741 10.2737 10.8373 10.6711 11.0606L17 14.671L13.6756 18Z" fill="#E5336D"/>
          <path d="M15.5 19C16.8807 19 18 17.8807 18 16.5C18 15.1193 16.8807 14 15.5 14C14.1193 14 13 15.1193 13 16.5C13 17.8807 14.1193 19 15.5 19Z" fill="#D3D3D3"/>
        </g>
      </g>
      <rect id="ITEM_3_TEXT_BG" x="-208" y="36" width="416" height="202" rx="22" fill="var(--panel)" fill-opacity="0.94" stroke="var(--accent-3)" stroke-width="2"/>
      <text id="ITEM_3_HEAD" x="0.0" y="50.0" text-anchor="middle" font-weight="bold" font-size="19" fill="var(--accent-3)" style="font-size: 21px; font-family: Inter, Segoe UI, Kalam, Roboto, Helvetica, Arial, sans-serif; font-weight: 700; letter-spacing:-0.4px;" data-bg-id="ITEM_3_TEXT_BG" dominant-baseline="text-before-edge" fill-opacity="1.0" stroke="none" data-final-font-size="21">
        <tspan x="0.0" dy="17.65px">Spatial</tspan>
        <tspan x="0.0" dy="24.15px">Reorientation</tspan>
      </text>
      <rect id="ITEM_3_HEAD_FRAME" x="-100" y="50" width="200" height="50" fill="none"/>
      <text id="ITEM_3_BODY" x="0.0" y="100.0" text-anchor="middle" font-size="15" fill="var(--primary-text)" style="font-size: 26px; font-family: Inter, Segoe UI, Kalam, Roboto, Helvetica, Arial, sans-serif; font-weight: 400;" data-bg-id="ITEM_3_TEXT_BG" dominant-baseline="text-before-edge" data-final-font-size="26">
        <tspan x="0.0" dy="32.84px">Errors in self-location create</tspan>
        <tspan x="0.0" dy="29.90px">externalized representations</tspan>
      </text>
      <rect id="ITEM_3_BODY_FRAME" x="-190" y="100" width="380" height="120" fill="none"/>
    </g>
    <!-- ITEM 4: Lower left -->
    <g transform="translate(720, 780)">
      <circle id="ITEM_4_NODE" r="45" fill="var(--icon-pad-bg)" stroke="var(--accent-4)" stroke-width="3"/>
      <circle r="53" fill="none" stroke="var(--accent-4)" stroke-width="3" stroke-dasharray="6 4"/>
      <g id="ITEM_4_ICON" transform="translate(-30, -30)" data-icon-size="60" stroke-dasharray="6 4">
        <g transform="translate(-16.800000000000004,-16.800000000000004) scale(3.9000000000000004)" vector-effect="non-scaling-stroke" fill="var(--primary-text)" fill-opacity="1.0" stroke="none">
          <path fill="var(--primary-text)" d="M13 3C9.2 3 6.2 5.9 6 9.7l-1.9 2.5c-.2.3 0 .8.4.8H6v3c0 1.1.9 2 2 2h1v3h7v-4.7c2.4-1.1 4-3.5 4-6.3c0-3.9-3.1-7-7-7" vector-effect="non-scaling-stroke" stroke="none"/>
        </g>
      </g>
      <rect id="ITEM_4_TEXT_BG" x="-208" y="36" width="416" height="202" rx="22" fill="var(--panel)" fill-opacity="0.94" stroke="var(--accent-4)" stroke-width="2"/>
      <text id="ITEM_4_HEAD" x="0.0" y="50.0" text-anchor="middle" font-weight="bold" font-size="19" fill="var(--accent-4)" style="font-size: 24px; font-family: Inter, Segoe UI, Kalam, Roboto, Helvetica, Arial, sans-serif; font-weight: 700; letter-spacing:-0.4px;" data-bg-id="ITEM_4_TEXT_BG" dominant-baseline="text-before-edge" fill-opacity="1.0" stroke="none" data-final-font-size="24">
        <tspan x="0.0" dy="30.40px">Social Perception</tspan>
      </text>
      <rect id="ITEM_4_HEAD_FRAME" x="-100" y="50" width="200" height="50" fill="none"/>
      <text id="ITEM_4_BODY" x="0.0" y="100.0" text-anchor="middle" font-size="15" fill="var(--primary-text)" style="font-size: 26px; font-family: Inter, Segoe UI, Kalam, Roboto, Helvetica, Arial, sans-serif; font-weight: 400;" data-bg-id="ITEM_4_TEXT_BG" dominant-baseline="text-before-edge" data-final-font-size="26">
        <tspan x="0.0" dy="32.84px">Brain uses social machinery</tspan>
        <tspan x="0.0" dy="29.90px">to construct the presence</tspan>
      </text>
      <rect id="ITEM_4_BODY_FRAME" x="-190" y="100" width="380" height="120" fill="none"/>
    </g>
    <!-- ITEM 5: Upper left -->
    <g transform="translate(560, 420)">
      <circle id="ITEM_5_NODE" r="45" fill="var(--icon-pad-bg)" stroke="var(--accent-5)" stroke-width="3"/>
      <circle r="53" fill="none" stroke="var(--accent-5)" stroke-width="3" stroke-dasharray="6 4"/>
      <g id="ITEM_5_ICON" transform="translate(-30, -30)" data-icon-size="60" stroke-dasharray="6 4">
        <g transform="translate(-7.401639344262296,-7.401639344262296) scale(2.3016393442622953)">
          <path d="M16.184 1C7.81346 1 1.02777 7.78568 1.02777 16.1562C1.02777 24.5268 7.81346 31.3125 16.184 31.3125C24.5546 31.3125 31.3403 24.5268 31.3403 16.1562C31.3403 7.78568 24.5546 1 16.184 1Z" fill="#9B9B9B"/>
          <path d="M30.3403 16.1562C30.3403 23.9745 24.0023 30.3125 16.184 30.3125C8.36574 30.3125 2.02777 23.9745 2.02777 16.1562C2.02777 8.33797 8.36574 2 16.184 2C24.0023 2 30.3403 8.33797 30.3403 16.1562Z" fill="white"/>
          <path d="M24.9965 15.9844C24.9965 20.9463 20.9741 24.9688 16.0121 24.9688C11.0502 24.9688 7.02777 20.9463 7.02777 15.9844C7.02777 11.0224 11.0502 7 16.0121 7C20.9741 7 24.9965 11.0224 24.9965 15.9844Z" fill="#7D4533"/>
          <path d="M21.0278 16C21.0278 18.7614 18.7892 21 16.0278 21C13.2663 21 11.0278 18.7614 11.0278 16C11.0278 13.2386 13.2663 11 16.0278 11C18.7892 11 21.0278 13.2386 21.0278 16Z" fill="#1C1C1C"/>
          <path d="M15.0278 13C15.0278 14.1046 14.1323 15 13.0278 15C11.9232 15 11.0278 14.1046 11.0278 13C11.0278 11.8954 11.9232 11 13.0278 11C14.1323 11 15.0278 11.8954 15.0278 13Z" fill="white"/>
        </g>
      </g>
      <rect id="ITEM_5_TEXT_BG" x="-208" y="36" width="416" height="202" rx="22" fill="var(--panel)" fill-opacity="0.94" stroke="var(--accent-5)" stroke-width="2"/>
      <text id="ITEM_5_HEAD" x="0.0" y="50.0" text-anchor="middle" font-weight="bold" font-size="19" fill="var(--accent-5)" style="font-size: 21px; font-family: Inter, Segoe UI, Kalam, Roboto, Helvetica, Arial, sans-serif; font-weight: 700; letter-spacing:-0.4px;" data-bg-id="ITEM_5_TEXT_BG" dominant-baseline="text-before-edge" fill-opacity="1.0" stroke="none" data-final-font-size="21">
        <tspan x="0.0" dy="17.65px">Hallucination</tspan>
        <tspan x="0.0" dy="24.15px">Realism</tspan>
      </text>
      <rect id="ITEM_5_HEAD_FRAME" x="-100" y="50" width="200" height="50" fill="none"/>
      <text id="ITEM_5_BODY" x="0.0" y="100.0" text-anchor="middle" font-size="15" fill="var(--primary-text)" style="font-size: 26px; font-family: Inter, Segoe UI, Kalam, Roboto, Helvetica, Arial, sans-serif; font-weight: 400;" data-bg-id="ITEM_5_TEXT_BG" dominant-baseline="text-before-edge" data-final-font-size="26">
        <tspan x="0.0" dy="26.86px">Experience inherits realism</tspan>
        <tspan x="0.0" dy="29.90px">from ordinary sensory</tspan>
        <tspan x="0.0" dy="29.90px">machinery</tspan>
      </text>
      <rect id="ITEM_5_BODY_FRAME" x="-190" y="100" width="380" height="120" fill="none"/>
    </g>
  </g>
</svg>
